<svg id="Layer_1" data-name="Layer 1" xmlns="http://www.w3.org/2000/svg" xmlns:xlink="http://www.w3.org/1999/xlink" viewBox="0 0 1923 1079.84"><defs><style>.cls-1{fill:#f2ce5a;}.cls-2{fill:#1d2828;}.cls-3{fill:#38ceca;}.cls-4{fill:#2b5272;}.cls-5{fill:#334547;}.cls-6{fill:#95d1d1;}.cls-7{fill:#ff5252;}.cls-8{fill:#4c423b;}.cls-9{fill:#494037;}.cls-10{fill:#544941;}.cls-11{fill:#f2f7fe;opacity:0.81;}.cls-12{fill:url(#linear-gradient);}</style><linearGradient id="linear-gradient" x1="961.5" y1="1079.84" x2="961.5" y2="0.84" gradientUnits="userSpaceOnUse"><stop offset="0.02" stop-color="#1a1a1a"/><stop offset="0.2" stop-color="#373334" stop-opacity="0.3"/><stop offset="0.35" stop-color="#bdbcbc" stop-opacity="0.1"/><stop offset="0.52" stop-color="#fff" stop-opacity="0"/><stop offset="1" stop-opacity="0.4"/></linearGradient></defs><title>camera_bg</title><rect class="cls-1" width="1923" height="1078.68" transform="translate(1923 1078.68) rotate(-180)"/><circle class="cls-2" cx="1738.07" cy="295.12" r="76.62"/><circle class="cls-2" cx="1419.57" cy="298.12" r="94.65"/><path class="cls-3" d="M1899,294.56c.32,88.69-71.73,161-160.64,161.23-88.5.23-160.76-71.79-161-160.51s71.76-161,160.68-161.16C1826.69,134,1898.68,205.7,1899,294.56Zm-88.68,114.19A131,131,0,0,0,1851.94,367c1-1.52,1.44-4.25.71-5.7-1.79-3.59-3.78-7.61-6.85-9.9a92.66,92.66,0,0,0-18.34-10.75c-19-8.28-38.35-16-57.52-24-2-.85-3.61-1.16-4.82,1.08a2.84,2.84,0,0,1-1,1.07c-5.7,3.38-4.83,7.46-2.46,12.85,7.58,17.24,14.3,34.86,21.88,52.11a125.32,125.32,0,0,0,11.21,19.34c2.67,4,6.86,6.42,12.44,7A20.16,20.16,0,0,0,1810.32,408.75Zm-186-41.74a135.34,135.34,0,0,0,41.33,41.63,7.78,7.78,0,0,0,9.75-.61c4-3.35,8.15-7.06,10.74-11.49,4.24-7.26,7.5-15.13,10.8-22.9,6.6-15.56,12.91-31.25,19.47-46.83,1-2.26,1.06-3.82-1.25-5.07a2.92,2.92,0,0,1-1.06-1c-3.32-5.77-7.42-4.51-12.57-2.27-18,7.85-36.44,14.92-54.44,22.89a86.66,86.66,0,0,0-18.29,11.47c-3,2.34-4.47,6.56-6.49,9.7A41.43,41.43,0,0,0,1624.35,367Zm227.54-144.19a134.65,134.65,0,0,0-41.72-41.73,6.81,6.81,0,0,0-8.15.18c-4,3-8.23,6.26-10.79,10.38-4.24,6.82-7.52,14.3-10.69,21.72-7,16.33-13.58,32.81-20.48,49.16-1.08,2.57-1.52,4.49,1.31,6a1.39,1.39,0,0,1,.54.48c3.37,5.75,7.49,4.78,12.84,2.43,17.25-7.56,34.87-14.28,52.12-21.86a125.73,125.73,0,0,0,19.34-11.2c3.94-2.67,6.49-6.81,7-12.46A18.3,18.3,0,0,0,1851.89,222.82Zm-186-41.45a136.15,136.15,0,0,0-41.13,40.85c-1.83,2.78-2.21,5.52-.65,8.13,1.84,3.06,3.8,6.48,6.61,8.44a107.05,107.05,0,0,0,18.42,10.66c19.05,8.26,38.35,16,57.53,23.95,1.89.79,3.39,1.17,4.52-1a3.43,3.43,0,0,1,1.2-1.33c5.74-3.34,4.52-7.43,2.28-12.59-7.81-17.94-14.86-36.2-22.73-54.12-2.78-6.33-6.78-12.21-10.78-17.91-2.59-3.7-6.56-6-12-6.64A25.4,25.4,0,0,0,1665.85,181.37Zm204.29,86.29c-.59-5.44-4-7.69-8.75-8.66-8.18-1.65-15.93.48-23.36,3.44-18.4,7.33-36.67,15-55,22.53-.33.13-.68.25-1,.39-9.26,3.86-9.3,3.86-8.71,13.9a3.58,3.58,0,0,0,1.91,2.48c21.32,8.82,42.63,17.68,64.06,26.22,6.86,2.74,14.08,4.48,21.63,3.08,5.9-1.08,8.29-3.11,9.19-9,1.38-9.07,2.35-18.19,3.49-27.32C1872.42,285.61,1871.13,276.65,1870.14,267.66ZM1710.52,163.09c-5.09.58-7.28,3.78-8.31,8.23-1.56,6.74-.37,13.36,2,19.59,6,15.57,12.32,31,18.57,46.44,2.72,6.72,5.64,13.35,8.3,20.1.8,2,2,2.2,4,2.55,7.53,1.32,10.42-2.3,12.93-8.94,6.92-18.3,14.82-36.22,22.1-54.39,3.06-7.65,5.58-15.56,4.13-24-1.09-6.37-3.19-9.07-9.28-9.74-8.88-1-17.73-2.21-26.82-3.36C1729,160.76,1719.75,162.05,1710.52,163.09Zm-104.3,159.26c.64,5.24,2.67,7.19,8.73,8.6,6.47,1.5,12.88.32,18.86-2,17.33-6.71,34.52-13.79,51.75-20.75,5.15-2.08,10.24-4.31,15.4-6.34,1.73-.68,2.6-1.56,2.09-3.48a3.56,3.56,0,0,1-.08-1.8c1.94-6.88-2.44-8.79-7.73-10.89-17.84-7.08-35.44-14.75-53.28-21.82a119.67,119.67,0,0,0-18.43-5.1,22.27,22.27,0,0,0-8.25.19c-6.08,1-8.12,2.94-9,9-1.36,8.94-2.35,17.93-3.52,27C1603.9,304.17,1605.11,313.25,1606.22,322.35ZM1765.33,427c5.18-.61,7.38-2.69,8.81-9,1.48-6.49.24-12.89-2.06-18.87-6.2-16.12-12.82-32.08-19.3-48.09-2.54-6.27-5.23-12.48-7.72-18.77-.69-1.75-1.59-2.6-3.48-2.14a2.48,2.48,0,0,1-1.08.06c-7.19-1.72-9.71,2.3-12,8.38-6.62,17.25-14.18,34.14-20.94,51.34-2.5,6.36-4,13.13-5.58,19.81a21.33,21.33,0,0,0,.24,8.26c.88,4.87,2.74,8.34,8.75,9,9.12,1,18.2,2.28,27.4,3.45C1747.37,429.28,1756.34,428.05,1765.33,427Zm-40.91-132a13.78,13.78,0,1,0,13.91-13.7A13.79,13.79,0,0,0,1724.42,295Z"/><path class="cls-3" d="M1282.86,296.62A138.22,138.22,0,1,0,1421.08,158.4,138.21,138.21,0,0,0,1282.86,296.62ZM1382,230.89a25.17,25.17,0,1,1-25.17-25.16A25.17,25.17,0,0,1,1382,230.89Zm130.32,91.27A25.17,25.17,0,1,1,1537.51,297,25.17,25.17,0,0,1,1512.34,322.16Zm-50.7,40.19a25.17,25.17,0,1,1,25.16,25.16A25.17,25.17,0,0,1,1461.64,362.35Zm0-131.46a25.17,25.17,0,1,1,25.16,25.17A25.16,25.16,0,0,1,1461.64,230.89Zm-65.35,157a25.17,25.17,0,1,1,25.16,25.16A25.16,25.16,0,0,1,1396.29,387.89Zm0-91.65a25.17,25.17,0,1,1,25.16,25.17A25.16,25.16,0,0,1,1396.29,296.24Zm0-90.89a25.17,25.17,0,1,1,25.16,25.17A25.15,25.15,0,0,1,1396.29,205.35Zm-64.6,157.75a25.17,25.17,0,1,1,25.16,25.16A25.16,25.16,0,0,1,1331.69,363.1Zm-27-66.11a25.17,25.17,0,1,1,25.17,25.17A25.17,25.17,0,0,1,1304.64,297Z"/><rect class="cls-4" x="1291.87" y="404.79" width="525.82" height="315.49" rx="9.25" ry="9.25" transform="translate(3109.57 1125.07) rotate(-180)"/><path class="cls-5" d="M1435.31,413.8h287a17.74,17.74,0,0,0,17.25-14.21L1762,294.46c2.39-11.25-6-21.88-17.26-21.88H1412.94c-11.26,0-19.65,10.63-17.26,21.88l22.37,105.13A17.75,17.75,0,0,0,1435.31,413.8Z"/><rect class="cls-6" x="1291.87" y="663.19" width="525.82" height="12.02" transform="translate(3109.57 1338.4) rotate(-180)"/><circle class="cls-6" cx="1499.2" cy="491.92" r="21.03"/><circle class="cls-3" cx="1556.29" cy="491.92" r="21.03"/><circle class="cls-6" cx="1428.29" cy="491.92" r="9.01"/><circle class="cls-7" cx="1395.84" cy="491.92" r="9.01"/><rect class="cls-5" x="1251.12" y="512.96" width="40.76" height="102.16" transform="translate(2542.99 1128.07) rotate(-180)"/><rect class="cls-5" x="1230.74" y="500.94" width="20.38" height="126.2" transform="translate(2481.85 1128.07) rotate(-180)"/><rect class="cls-5" x="1162.67" y="482.91" width="68.06" height="162.25" transform="translate(2393.41 1128.07) rotate(-180)"/><rect class="cls-8" x="1533.65" y="735.21" width="42.26" height="102.16" transform="translate(768.5 2341.07) rotate(-90)"/><rect class="cls-9" x="1544.6" y="694.87" width="20.38" height="126.2" transform="translate(796.82 2312.75) rotate(-90)"/><rect class="cls-10" x="1539.01" y="636.9" width="31.55" height="195.3" transform="translate(820.23 2289.34) rotate(-90)"/><rect class="cls-10" x="1418.32" y="835.71" width="272.93" height="213.33" transform="translate(612.41 2497.16) rotate(-90)"/><polygon class="cls-11" points="0 936.23 1162.67 612.58 1162.67 518.73 0 191.84 0 936.23"/><rect class="cls-12" y="0.84" width="1923" height="1079"/></svg>