<svg id="Layer_1" data-name="Layer 1" xmlns="http://www.w3.org/2000/svg" xmlns:xlink="http://www.w3.org/1999/xlink" viewBox="0 0 1920 1080"><defs><style>.cls-1{isolation:isolate;}.cls-2{fill:url(#linear-gradient);}.cls-3{fill:#feeead;}.cls-4{fill:#1a1a1a;}.cls-5{mask:url(#mask);}.cls-6{fill:#f1d975;}.cls-7{fill:#fbe68c;}.cls-8{fill:#f1d974;}.cls-9{fill:#e2bd5b;}.cls-10{fill:#d2a84a;}.cls-11{fill:#fcfcfc;}.cls-12{fill:#fbe68d;}.cls-13{fill:#ecd165;}.cls-14{fill:#f2db77;}.cls-15{fill:#e3bf5c;}.cls-16{fill:#e7c665;}.cls-17{fill:#ebcf6b;}.cls-18{fill:#e6c461;}.cls-19{fill:#eacc69;}.cls-20{fill:#89644a;}.cls-21{fill:#6c482e;}.cls-22{fill:#8f6a50;}.cls-23{fill:#886349;}.cls-24{fill:#fff;opacity:0.21;}</style><linearGradient id="linear-gradient" x1="1780.19" y1="507.01" x2="1324.45" y2="507.01" gradientUnits="userSpaceOnUse"><stop offset="0" stop-color="#fff"/><stop offset="0.33" stop-color="#fdfdfd"/><stop offset="0.45" stop-color="#f6f6f6"/><stop offset="0.53" stop-color="#ebebeb"/><stop offset="0.6" stop-color="#dadada"/><stop offset="0.66" stop-color="#c4c4c4"/><stop offset="0.71" stop-color="#a8a8a8"/><stop offset="0.76" stop-color="#888"/><stop offset="0.8" stop-color="#626262"/><stop offset="0.84" stop-color="#373737"/><stop offset="0.88" stop-color="#090909"/><stop offset="0.88"/></linearGradient><mask id="mask" x="0" y="0" width="1780.19" height="915.31" maskUnits="userSpaceOnUse"><g class="cls-1"><rect class="cls-2" x="1324.45" y="98.91" width="455.73" height="816.21"/></g></mask><symbol id="New_Symbol_1" data-name="New Symbol 1" viewBox="0 0 10 10"><path class="cls-3" d="M5.49.29,6.9,2.88a.58.58,0,0,0,.22.22L9.71,4.51a.56.56,0,0,1,0,1L7.12,6.9a.58.58,0,0,0-.22.22L5.49,9.71a.56.56,0,0,1-1,0L3.1,7.12a.58.58,0,0,0-.22-.22L.29,5.49a.56.56,0,0,1,0-1L2.88,3.1a.58.58,0,0,0,.22-.22L4.51.29A.56.56,0,0,1,5.49.29Z"/></symbol><symbol id="New_Symbol" data-name="New Symbol" viewBox="0 0 4.19 4.19"><path class="cls-3" d="M2.3.12,2.89,1.2A.29.29,0,0,0,3,1.3l1.09.59a.24.24,0,0,1,0,.41L3,2.89,2.89,3,2.3,4.07a.24.24,0,0,1-.41,0L1.3,3a.29.29,0,0,0-.1-.09L.12,2.3a.24.24,0,0,1,0-.41L1.2,1.3a.24.24,0,0,0,.1-.1L1.89.12A.24.24,0,0,1,2.3.12Z"/></symbol></defs><title>oscar_bg</title><rect class="cls-4" width="1920" height="1080"/><g class="cls-5"><path class="cls-6" d="M1487.16,615.11a3.47,3.47,0,0,1,1.45.8,4.68,4.68,0,0,1,1.43,1.3,5.77,5.77,0,0,1,.6,1.87c2.51,13.78,6.22,27.42,7,41.41a161.22,161.22,0,0,1-1.1,32.33c-2,13.81-4,27.64-5.92,41.46-.65,3.29-1.13,6.61-2,9.85-.53,2,0,2.8,2.06,3.64,9.54,3.9,19,8,28.44,12.05,3.39,1.46,5.35,3.91,5.56,7.42-1,1-2.3.82-3.53.82q-37.34,0-74.66,0c-4.11,0-4.85-.65-4.2-4.2,1.76-9.57,0-19-.82-28.52-1-10.94-2.24-21.86-3-32.83-1-14.65-.63-29.3-.39-43.94a271.12,271.12,0,0,1,3.25-35.7,19.16,19.16,0,0,0-1.7-10.7,41.16,41.16,0,0,1-3.12-9.08c-.86-4.92,1.41-7.21,6.76-6.73,4.88.45,5,.44,4.21-3.92-1.69-10-5.53-19.38-9.33-28.78-3.19-7.86-6.54-15.67-9.94-23.45a59.08,59.08,0,0,1-3.79-10.71c-1.72-10.78-.34-21.49,1.06-32.16a389.24,389.24,0,0,1,12.55-59.14,14.33,14.33,0,0,1,1.22-3.27c1.13-1.92,2.24-2,4.45-.52,5.21,12.27,7,25.15,8.25,38.16,1.43,15.27,2,30.56,2.55,45.88,1,27.87,0,55.74.58,83.6.32,14.25.61,28.52,1.28,42.76.47,9.82.68,19.65,1.26,29.46q1,16.23,1.5,32.49c-.07-1.06-.05-2.12-.06-3.19.29-15.28,1.19-30.53,2.07-45.79.31-5.48.45-11,.54-16.45.16-9.82.63-19.63.89-29.45.8-30.24,0-60.5.69-90.73.51-22.89,1.27-45.83,5.59-68.48.91-4.73,1.69-9.52,4.08-13.89a4,4,0,0,1,2.81-1,67.68,67.68,0,0,0,16.55-3.92c1.11-.42,2.25-1.1,3.55-.44.88,1.15.94,2.54,1.25,3.85A335.21,335.21,0,0,1,1504.6,485c1.61,19.68,1.34,39.35-3.47,58.68-4.18,16.82-9,33.51-17,49.26a1.51,1.51,0,0,0-.2,1.2c1,.63,2.16-.06,3.25-.1,4.16-.18,5.75,1.7,4.12,5.2-1.44,3.1-3.12,6.11-4.65,9.18-.41.83-.86,1.64-1.31,2.45a12.53,12.53,0,0,0-1.22,2.09,1.5,1.5,0,0,0,0,1.12,2.1,2.1,0,0,0,.79.88,1.7,1.7,0,0,0,1.16.26,7.54,7.54,0,0,1,.83-.12A1.22,1.22,0,0,1,1487.16,615.11Z"/><path class="cls-7" d="M1533.66,407.9c-2.18,6.91-2.71,14.25-6.34,20.79a20.87,20.87,0,0,1-16.24,2.21c-6.09-1.49-12-3.38-18.1-4.94a15.89,15.89,0,0,0-8.65,0,28.76,28.76,0,0,1-9.61,1.27c-4.11-.21-6.8-2.13-8.1-5.73s-.25-7.27.2-10.88a14.63,14.63,0,0,0-1.64-8.41,4.3,4.3,0,0,0-5.06-2.49c-7,1.14-9.77-.35-9.23-8.3.26-3.93,1.26-7.78,1.24-11.77,0-5.46-2.4-9.43-7.6-12.05-1.13-.57-3.06-1-2.71-2.36s2.32-1.34,3.76-1.52c.73-.08,1.47,0,2.2-.06,5.6.07,11.2-.48,16.78.31,2.37,1.32,2.62,3.64,3,5.78a72.1,72.1,0,0,1,.94,23c-.1.73-.33,1.53.43,2.19,1.18-.15,1.49-1.07,1.62-1.86,1.36-8.05,2.24-16.14-1.16-23.95a32.11,32.11,0,0,1-2.64-7.63,6.38,6.38,0,0,0-6.28-3.82c-1.22,0-2.53-.06-3.13-1.38a9.06,9.06,0,0,1-.38-3.14q0-37.14,0-74.26c0-1.53-.12-3.11,1-4.42,2.08-1.72,5-1.87,7.31-3.1a88.3,88.3,0,0,0,11.07-7.42c.86-.62,1.58-1.58,2.93-1.38.17,4.12-.26,8.32,2,12.14,1.56,2.44,4.17,3.75,6.66,5.16,6.71,3.79,13.77,7,20.41,10.93,11,6.43,16.93,15.92,18.41,27.63,1.11,8.74,2.42,17.42,5.18,25.84a83.16,83.16,0,0,1,3.74,24.24c.12,5.59,0,11.18,0,16.77C1535.89,392.89,1535.78,400.47,1533.66,407.9Z"/><path class="cls-8" d="M1447.29,364.44c-1.76,0-3.54-.09-5.35,1,2.87,1.52,5.9,2.61,8,5,4,4.63,3.2,10,2.76,15.21-.22,2.56-1.06,5.06-1,7.68.1,5.37,1.84,6.74,7.57,5.79,4.38-.73,5.43-.17,7.21,3.47,1.94,4,1.57,8.05.68,12.09a12.72,12.72,0,0,0,.67,7.63c1.39,3.51,5.9,5,11.59,4a2.45,2.45,0,0,0,.6-.18c6.47-2.58,12.78-1.49,19.1.59,3.14,1,6.42,1.72,9.57,2.74,6,1.94,11.83,1.94,17.55-.79.37-.18.76-.35,1.11,0-2.24,3.4-5.48,4.93-9.84,4.67-2.79-.16-5.6,0-8.4,0-3.53.52-6.45-1.43-9.72-2a18.93,18.93,0,0,0-8.77-1.91q-12.28.09-24.57,0a44,44,0,0,1-11.21-1.32c-6-1.61-7.88-3.94-7.74-9.65s-.74-11.18.64-16.71c.17-.7-.11-1.11-.9-1.19-8.12-.78-16.18-1.28-23.24,3.66a69,69,0,0,0-7.2,5.6,117.91,117.91,0,0,1-8.83,7.84c-9.79,7.32-15.73,6.28-23.32.57-3.55-6.32-4.77-13.17-5.64-20.14-.27-2.17-.57-4.34-.74-6.52-.52-.92.17-2-.5-2.92l-.14-2.87c-.49-.93.16-2-.48-2.93l-.15-3.44c-.52-1.12.2-2.4-.48-3.51-.06-1.34-.11-2.68-.16-4-.53-1.32.24-2.76-.48-4.06l-.13-4.61c-.62-2.49.27-5.06-.5-7.54.13-5.36-1.72-10.44-2.68-15.63a97,97,0,0,1-1.27-10.41,47.29,47.29,0,0,1,0-8.58c.31-3.37.11-6.83,2-9.94,5.8-1.6,10,.6,11.5,6.15,1.12,4.29,1.73,8.69,2.47,13.06q1.76,10.51,3.32,21.06c.38,4.11,1.67,8.13,1.56,12.3a2.28,2.28,0,0,0,.61.06c1.56,2,1.21,4.43,1.5,6.66.62,4.77,1.36,9.53,1.83,14.32a10.86,10.86,0,0,0,1.33,3.83c1.53,3,2,3.09,4.85.87,8.3-6.16,16.11-12.91,25.33-18a44.63,44.63,0,0,1,8.17-4c-2.43.57-4.81,2.06-7.25,3.39a90.3,90.3,0,0,0-14.39,9.26,18.31,18.31,0,0,1-2.76,1.91c-.45.25-1,.51-1.44.14s-.36-.86-.23-1.34a5.36,5.36,0,0,1,.45-1.08,58.28,58.28,0,0,1,8.46-12.46c5.32-5.86,12.48-8.56,20.38-10a38.79,38.79,0,0,0,10.74-3.05,8.1,8.1,0,0,0,1.62-1.22,8.86,8.86,0,0,1-2.18,1.41c-3,1.3-6.07,2.49-9.52,2.28-6.75-.42-13.49-.3-20.24-.05-5.74.19-10-2.39-13.81-6a18.4,18.4,0,0,0-1.79-2,8.13,8.13,0,0,1-2.82-4.41,85.83,85.83,0,0,0-12.16-23.62,6,6,0,0,1-1-1.81,30.58,30.58,0,0,1,3.33-14.56,13.78,13.78,0,0,1,7.1-6.27c3.82-1.6,7.63-3.23,11.47-4.77a8.49,8.49,0,0,1,4.57-.51c4.71.65,9.38-.5,14.08-.56,5.87-.07,11.7-.8,17.56-.94a15.85,15.85,0,0,1,4.58.25c-12.07-.37-24.11,1.25-36.33,1.39.45-1.87,1.86-2.27,3-2.78a88.84,88.84,0,0,0,15.74-9c7.41-5.22,16-7.5,25.29-7.52a2,2,0,0,1,1.42.51c-1.37.8-1.29,2-1.29,3.32q0,39.71,0,79.4a3.49,3.49,0,0,1-2.88.77c-3.51-.09-5.74,1.32-6.54,4.51A4.41,4.41,0,0,1,1447.29,364.44Z"/><path class="cls-9" d="M1424,529.36c2.07,6.16,4.48,12.2,7.13,18.13,1.91,4.29,4,8.52,5.81,12.86.28.65.74,2.61,1.86,5.07s1.67,3,2.58,4.68c1.48,2.79,1,3.3,3.2,10.51,1.15,3.81,1.72,5.71,2.12,6.61a17.84,17.84,0,0,1,1.9,5.81,5.38,5.38,0,0,1-.63,3.45,2.48,2.48,0,0,1-1.1,1.1c-.75.33-1.13-.09-2.22.24-.53.16-.52.27-1.26.52a8.6,8.6,0,0,0-1.89.71,6.93,6.93,0,0,0-2.32,1.83,7.29,7.29,0,0,0-1.1,2.2c-1,3.22.9,7.47,1.13,8a18.87,18.87,0,0,1,2.19,8.59c.08,4.08-.76,8.11-1.23,12.14s-.77,8-1.2,12c-1.88,17.31-1.24,34.64-1,52a244,244,0,0,0,2.25,28.38c1,7.32,1.24,14.72,2.08,22,.74,6.54,1,13-.57,19.48-.26,1.07.28,1.65,1.51,1.64.42,0,.84,0,1.26,0l79.09,0c4.6.46,9.28-.63,13.83.6-1.18,1.08-2.71.94-4.15.94q-74.62,0-149.25,0c-1.45,0-3,.14-4.16-.94,3-1.08,6.21-.45,9.32-.48,1.84,0,2.75-.47,3.25-2.17a7.91,7.91,0,0,1,6.38-5.92q12.26-3.66,24.63-6.92c2.42-.64,4.82-1.36,7.25-2s3.14-1.76,2.46-4c-1.89-6.31-3.39-12.72-4.77-19.15a601.14,601.14,0,0,1-9.77-61.44c-1.09-9.95-2.14-19.91-2.72-29.9-.08-1.35.63-2.67,0-4,.83-6.15,1.4-12.34,2.57-18.43.32-1.65.4-3.33.67-5a12.21,12.21,0,0,0-.51-4.48c-.75-3.62-1.61-7.22-2.52-10.8-1.8-7.18-3.78-14.31-5.45-21.52q-.69-3-1.31-6.07c-4.18-21-4.46-42.58-4.31-64q.24-38,2.19-75.91c1.72.22,2.42,2.3,2.72,4,5.73,32.1,3.41,65.65,13.15,96.78C1423.39,527.46,1423.7,528.41,1424,529.36Z"/><path class="cls-10" d="M1379.84,767.84H1537.4c7.73.22,15.44,5.93,18.23,13.51.33.9.57,1.83.86,2.75s-.26,2,.46,2.82l0,0a.73.73,0,0,1-.39,1,10.55,10.55,0,0,1-4.63.55h-186a10.61,10.61,0,0,1-4.64-.55.74.74,0,0,1-.39-1l0,0c.74-.86,0-1.94.51-2.83A19.79,19.79,0,0,1,1379.84,767.84Z"/><path class="cls-10" d="M1424,529.37c-1.18,1.61-1.08-.31-1.14-.46a74,74,0,0,1-3.93-13.59c-1.76-9.23-2.93-18.52-3.86-27.85-1-9.52-1.58-19.07-2.56-28.58-1.1-10.54-1.21-21.21-4.24-31.54-.21-.73,0-1.87-1.3-.62-4.78,2.59-9.52,4.67-15,1.21-3.85-2.44-6-5.89-7.78-9.66.37-.51.79-.49,1.32-.19,9.75,5.61,14.9,5,23.36-2.47,3.91-3.48,7.51-7.23,11.81-10.35,6.28-4.55,13-7.08,21.21-5.63,2.32.41,4.79.06,7.4.06-2.68,7.09-.91,14.19-1.4,21.19-.17,2.42,1.34,3.9,3.45,5.08,4.21,2.34,9,2.53,13.62,2.64,9,.23,18,.07,27,.07a11.41,11.41,0,0,1,7.49,2.25,5.55,5.55,0,0,1-5,2.44c-7.06,2.9-14.35,5-22.16,5.28-4.33,1.52-8.78.62-13.19.57-4.69-1-9.48-1.63-14-3.27-1-.38-2.25-.54-3-1.5-2.27-1.43-3.13-.18-3.71,1.64-3.11,9.67-5.37,19.53-7.6,29.39a340.45,340.45,0,0,0-6.23,36C1423.67,510.74,1422.83,520.05,1424,529.37Z"/><path class="cls-3" d="M1482.94,610.94c2.8-5.84,4.77-9.49,6.1-11.24.37-.48,1.48-1.92,1.12-3.33a2,2,0,0,0-.57-.94c-1.25-1.27-3.15-.67-4.78-.44-1.21.18-2.39.54-3.48.8-.64-.39-.42-.77-.24-1.1,7.22-12.83,11-26.76,15.26-40.53a159.87,159.87,0,0,0,6.56-37.68,240.42,240.42,0,0,0-.7-34,326.49,326.49,0,0,0-7.58-47.15,4.53,4.53,0,0,1-.07-1.28l3-3.16c4.17-.34,7.68,1.52,11.47,2.43.76,8.74.07,17.53.7,26.25,1.54,21.17,1.39,42.36,1,63.53a290.66,290.66,0,0,1-3,37c-1.74,11.8-5.23,23.25-8.78,34.66a46.68,46.68,0,0,0-.83,24.21,126.17,126.17,0,0,1,2.76,34.65c-.93,13.83-2.3,27.62-4.35,41.36-2,13-4.29,25.91-6.64,38.83,0,.16-.26.29-.39.44,0-7.31,1.34-14.5,2.31-21.73s1.69-14.28,2.79-21.39a142.65,142.65,0,0,0,1.29-17.51c.43-15.09-2.17-29.83-5.35-44.53-.67-3.1-1.11-6.23-1.71-9.34-.24-1.21-.21-2.85-1.59-3.25a2.52,2.52,0,0,0-.69-.09l-.37,0a3.83,3.83,0,0,1-3-1.31A3.76,3.76,0,0,1,1482.94,610.94Z"/><path class="cls-9" d="M1459.27,274.19c-7.84.63-15.57,1.45-22.54,5.34-4.31,2.4-7.81,5.81-12.35,7.89-3.35,1.54-6.62,3.21-10.56,5.12,4.92.5,9.09-.44,13.27-.61,6.24-.25,12.47-.94,18.68-1.58,3-.3,5.2.86,7.77,2.69-2.6.14-4.47-1.07-6.63-1-11.5.48-23,.82-34.51,1.21-2.09.07-3.68,1.33-5.5,2-3,1.16-6,2.3-8.92,3.57-6.67,2.87-8.13,8.64-9.28,14.49-.39,2-.43,4-.63,6,1.73,3.58.8,7.43,1.2,11.14.66,6,1.53,12.05,1.61,18.13-.4,1.08.44,2.7-1.58,3.08-1.91-11.51-3.71-23-5.81-34.51-.66-3.57-4.93-7.73-9.7-5.38-.79.39-.8-.22-.93-.66,1.67-8.47,11.69-18.59,22.06-18.61,6.21,0,11.4-3.7,16.78-6.32,7.13-3.47,14.12-7.22,21.43-10.31,5.19-2.19,5.32-5.57,5.13-10.17-.23-5.54-2.6-10.4-5.21-15.34-5-9.35-5.84-19.47-5.28-29.73.07-1.25,0-2.5,0-3.75.66-.9,0-2,.46-2.9a40.84,40.84,0,0,1,3.46-15.85c4.16-8.85,12-12,21.85-11.9,0,1.17-1.09,1.39-1.92,1.59-9.13,2.16-12.9,8.35-14.4,16.17a82.88,82.88,0,0,0-1.68,16.3,68.56,68.56,0,0,1,8.63-2.27c7.13-1,11.23,1.87,11.47,8.46.14,3.94.39,7.9-.33,11.83a5,5,0,0,0,.06,2c.19.83,1.82,2-.39,2.39a2.61,2.61,0,0,1-3.25-2,7.26,7.26,0,0,1,.16-2.58,25.11,25.11,0,0,0-.55-9.76,5.23,5.23,0,0,0-4.39-4,39.6,39.6,0,0,0-6.22-.86c-3.74-.14-5.54,1.88-4.73,5.28a8.88,8.88,0,0,0,2.49,4.6,11.35,11.35,0,0,1,3.29,6.73c1,5.7,1.64,11.46,3,17.11.11.47.21.95.3,1.42,1.29,6.51,5.05,10.67,12.61,11.24a19.81,19.81,0,0,0,9.89-3.22,30,30,0,0,0,8.49-7.44,14.59,14.59,0,0,1,1.84-1.93c.38-.31.8-.67,1.36-.45s.45.81.43,1.25c0,.74.25,1.53-.28,2.22,0,.76-.07,1.52-.11,2.28C1473.16,267.2,1467.43,272.47,1459.27,274.19Z"/><path class="cls-6" d="M1458,270.66c-9-1.11-12.32-4-13.89-12.37-1.25-6.69-2.5-13.38-3.68-20.08a6.2,6.2,0,0,0-2.31-4c-2.29-1.83-2.91-4.38-3.39-6.94a3.13,3.13,0,0,1,.43-2c1-1.84,1.81-2.89,4.33-2.74s5,.57,7.44.87c4.73.58,5.4,4.11,5.85,7.45a22,22,0,0,1-.19,8c-.61,2.54-.42,2.75,3,3.41-1.86-1.4-1.42-3-1.14-4.56a42.55,42.55,0,0,0,.12-12.94c-.67-4.87-4.67-7.1-10-6.1-3.26.62-6.54,1.21-9.94,3.41a44.32,44.32,0,0,1,0-6c.72-4.82.91-9.7,2.17-14.48,2-7.46,6.29-12.66,14.68-14.55a11.76,11.76,0,0,0,2-.81l1.29-.09c3.63-.48,4.09-.18,4.12,3.4.09,9.91,0,19.81,0,29.72q0,13.27,0,26.55c0,3.51,0,3.5,3.68,3.71,1.23.08,2.55,0,3.53,1.26-2,2.06-6.56-.14-7.47,3.61-1.54,1.05-1.54,1.05-3.26.36,1,.93,2.79.64,3.18,2.1.64,3.89.28,7.78.25,11.67A2.9,2.9,0,0,1,1458,270.66Z"/><path class="cls-7" d="M1458,270.66l0-14.42a.73.73,0,0,1,0-1.15c.11-3.69.11-3.69,7.42-4.65h-3c-4.39,0-4.39,0-4.39-4.18,0-19,0-37.95,0-56.93,0-2.28-.48-3.52-3.22-3.14a9.82,9.82,0,0,1,7,.09c10.75.92,15,6.09,17.83,14.93,1.92,6.06,1.87,12.38,2.43,18.6.25,2.84-.64,3.25-3.34,2a22.13,22.13,0,0,0-9-2.34c-5.09-.06-7.63,2.17-7.7,6.79q-.1,6.66,0,13.3c0,.75.51,1.62-.48,2.24,1-.29.69-1,.66-1.57a79.74,79.74,0,0,1,0-9.53c.37-5.2,2.32-7.15,7.87-8.26a25.53,25.53,0,0,1,7.19-.52c2.63.22,4.57,2,4.5,4.35-.08,2.71-.41,5.54-2.53,7.59-2.74,2.63-3.47,5.83-4,9.2a137.21,137.21,0,0,1-3.18,16.79c-.78,2.72-1.64,5.39-4,7.36A21.2,21.2,0,0,1,1458,270.66Z"/><path class="cls-3" d="M1533.66,407.9c1.65-12.06,1.21-24.18,1.23-36.28a90.73,90.73,0,0,0-4.13-28.39c-2.68-8.24-3.69-16.83-4.88-25.4-1.59-11.58-7.84-20.89-19.06-27-7.27-4-15-7.29-21.76-12-1.55-1.09-3.34-2-3.71-4.06a32.06,32.06,0,0,0,8.34,5.06c8.17,3.7,16.22,7.64,24.49,11.13,3.46,1.45,7.39,2,11.08,3,11.74,3.22,17.41,11,19.08,21.67,1.64,10.47.59,20.86-1.71,31.15-1.81,8.09-1.14,16.26-1.49,24.41A121.25,121.25,0,0,1,1533.66,407.9Z"/><path class="cls-6" d="M1468.06,267.21c4.37-7.55,4.93-15.94,6.33-24.15.59-3.5,1-7,4.2-9.65,2.5-2.11,2.92-7.32,1.43-9.51-.35-.51-.65-1.09-1.31-1.13-4.64-.3-9.32-.25-13.32,2.22-2.16,1.33-2.18,3.87-2.31,6.06a58.26,58.26,0,0,0,0,9c.19,2-.72,2.32-2.79,2.27.43-.66,1.34-.79,1.18-1.72-.8-4.59-.29-9.22-.35-13.84-.07-6.21,4.15-9.29,10.87-7.94,3.16.63,6.29,1.4,9,3.76.74-3.87-.36-7.34-.53-10.79a38.3,38.3,0,0,0-3.55-15.09c-2.67-5.52-7.35-8.42-13.45-9.81-.6-.14-1.28,0-1.71-.57,13.1-.53,22.28,6.26,24.5,18.1a94.84,94.84,0,0,1,1.45,12c.41,1.34-.24,2.77.42,4.08.1,9.2-.52,18.31-4.3,27a8,8,0,0,1-.52,1.35,25.13,25.13,0,0,0-4,11.52c0-1-.1-2-.17-3.48C1475.58,260.77,1472.72,264.83,1468.06,267.21Z"/><path class="cls-10" d="M1415.89,631.89a52.66,52.66,0,0,1,1.09,6.16c.65,10.71,2,21.36,3.08,32,1.17,11.34,2.84,22.62,4.69,33.87a365.84,365.84,0,0,0,9.54,43.33c.64,2.21.1,3-2.23,3.59-10.45,2.74-20.85,5.66-31.26,8.54-.72.2-1.38.51-2-.14,8.31-3.89,16.8-7.4,25.35-10.81,4.4-1.76,4.48-1.79,3.58-6.1-3.51-16.83-6.52-33.74-8.89-50.75-2.33-16.79-4.08-33.59-3.71-50.53A62.84,62.84,0,0,1,1415.89,631.89Z"/><path class="cls-11" d="M1370.87,321.1v8.58A15.64,15.64,0,0,1,1370.87,321.1Z"/><path class="cls-11" d="M1374.82,355.72c1,2.47.37,5,.5,7.54C1374.17,360.8,1375.06,358.23,1374.82,355.72Z"/><path class="cls-11" d="M1375.45,367.87c.86,1.28.47,2.69.48,4.06C1375,370.66,1375.61,369.22,1375.45,367.87Z"/><path class="cls-11" d="M1405.46,471c0,1.38.47,2.79-.36,4.11C1405.19,473.76,1404.64,472.34,1405.46,471Z"/><path class="cls-11" d="M1488.21,220.44c-.92-1.29-.39-2.71-.42-4.08C1488.68,217.66,1488.08,219.08,1488.21,220.44Z"/><path class="cls-11" d="M1405.09,526.41c.82,1.1.38,2.32.37,3.49C1404.68,528.8,1405.17,527.58,1405.09,526.41Z"/><path class="cls-11" d="M1376.09,376c.81,1.1.49,2.32.48,3.51C1375.61,378.39,1376.21,377.13,1376.09,376Z"/><path class="cls-11" d="M1376.72,382.9c.76.89.52,1.93.48,2.93C1376.31,385,1376.81,383.89,1376.72,382.9Z"/><path class="cls-11" d="M1428.22,214c0,1,.31,2-.46,2.89C1427.86,216,1427.38,214.9,1428.22,214Z"/><path class="cls-11" d="M1377.34,388.7c.77.89.52,1.92.5,2.92C1376.94,390.76,1377.44,389.69,1377.34,388.7Z"/><path class="cls-11" d="M1361.43,784.09c0,1,.22,2-.51,2.83C1361.06,786,1360.57,784.93,1361.43,784.09Z"/><path class="cls-11" d="M1557,786.92c-.71-.86-.44-1.86-.47-2.82C1557.29,785,1556.82,786,1557,786.92Z"/><path class="cls-11" d="M1406.72,435.72c0,1,.4,2-.37,2.91C1406.41,437.66,1406,436.63,1406.72,435.72Z"/><path class="cls-11" d="M1406.09,457.71c0,1,.41,2-.38,2.89C1405.78,459.63,1405.36,458.61,1406.09,457.71Z"/><path class="cls-12" d="M1442.27,434.45l16.44,4a10.86,10.86,0,0,1,.33,3.16q0,114.4,0,228.81c0,10-.39,20-.7,30a5.47,5.47,0,0,0,.28,3.12c0,2,.38,4-1.09,6.17-.44-4.37-.16-8.37-.64-12.38-.7-5.81-.43-11.71-.8-17.56-.65-10.27-1-20.54-1.36-30.81-.35-9.41-.81-18.81-1.14-28.22-1.1-31.89-.2-63.8-.76-95.69-.19-10.94-.31-21.92-1.17-32.84s-1.69-22-3.26-32.9c-1.14-7.95-2.67-15.95-6.3-23.39C1441.8,435.38,1441.58,434.88,1442.27,434.45Z"/><path class="cls-3" d="M1458.6,725.11c-1-.93-.59-2.16-.59-3.25q0-140.1,0-280.2c0-1.1-.38-2.33.71-3.22l13.7.23c-3.51,11.78-5.25,23.85-6.32,36.07-.8,9.21-1.36,18.41-1.89,27.63-2,34.36-.66,68.74-1.3,103.1-.2,11-.18,22.07-.6,33.09-.47,12.26-.87,24.52-1.27,36.78-.31,9.33-.85,18.67-1.26,28C1459.45,710.6,1458.67,717.84,1458.6,725.11Z"/><path class="cls-6" d="M1506.53,400.34a218.27,218.27,0,0,1-6.3-21.36c-1.93-7.69-7.16-11.86-15.13-14.11-5.37-1.52-10.49-3.82-15.66-5.9-3.65-1.47-5.76-4.25-7.3-8.24,1.88,1.22,3.26,2.08,4.6,3,3.62,2.45,8,2.06,12.07,2.44a57.38,57.38,0,0,0,14.1-.17,3.38,3.38,0,0,1,.92-.17c8.87,1.11,14.74-3,19.6-9.29-1,3.14-2.19,6.25-3.07,9.42a121.7,121.7,0,0,0-4,22.34c-.62,7.44.47,14.71.8,22C1506.94,400.62,1506.74,400.6,1506.53,400.34Z"/><path class="cls-13" d="M1447.29,364.44c.91-5.21,1.41-8.09,10.72-7.53,4-.21,7.75-.13,9.44,4.07.48.61.29,1.3.29,2,0,2.56,0,2.56-2.82,1.52Z"/><path class="cls-6" d="M1464.92,364.46c4,.78,2.07-2.08,2.53-3.48,3.08,8.38,6.43,16.71,5,25.82-.37,2.45-.71,4.91-1.26,7.33-.3,1.37-1.36,2.78-2.92,2.51s-1-2-.78-3a51.37,51.37,0,0,0,.48-12.92C1467.66,375.23,1467.41,369.65,1464.92,364.46Z"/><path class="cls-6" d="M1506.53,400.34h.62c.49,1.65,1.46,2.34,3.53,2.43a19.4,19.4,0,0,1,7.19,2.06,10.75,10.75,0,0,1-2.18.12c-7.5-1.08-15-.51-22.48.06a27.17,27.17,0,0,1-18.29-5.06c1.4-.49,2.52.35,3.68.64a27,27,0,0,1,3.49,1.28,21.67,21.67,0,0,0,12,1,59.32,59.32,0,0,1,10.66-.2C1507,402.76,1507.09,401.89,1506.53,400.34Z"/><path class="cls-14" d="M1463,293.19c2.4-3.18,5.85-3,9.31-2.73q10.25.8,20.49,1.66c3.51.3,7,.79,10.53,1.11-3.4,0-6.86.4-10.17-.08-6.54-1-13.13,0-19.67-.94A19.13,19.13,0,0,0,1463,293.19Z"/><path class="cls-7" d="M1389.93,348.81c-.24-8.78-2.11-17.47-1.9-26.29,0-1,0-2.11,0-3.16A74.49,74.49,0,0,1,1401,343.53c.56,1.65,1,3.58,2.77,4.68a65.87,65.87,0,0,1,5.31,20.29,11,11,0,0,0,.38,4.15,9,9,0,0,1,0,3.79c-.59,1.46-.31,3-.51,4.52.17,2.53-1.06,4.44-3.2,5.9a15.27,15.27,0,0,0-3.29,3.07,3.27,3.27,0,0,0-.76.48c-2.67,2.67-3.5,2.52-5.31-.87-2.25-4.23-1.8-8.91-2.67-13.36-.8-4.08-.59-8.3-1.89-12.32A91,91,0,0,1,1389.93,348.81Z"/><path class="cls-15" d="M1402.46,389.93c.46-1.94,2.32-2.86,3.64-4.14s2.32-2.67,2.12-4.54c.81-1.48-.19-3.16.59-4.65,0-1.34,0-2.69,0-4-.75-1.28.22-2.78-.59-4.06a70.19,70.19,0,0,0-4.1-17.43c-.32-.88-1.4-1.8-.35-2.86a25,25,0,0,0,8.81,6.73c1.85.79,3.84.83,5.71,1.4a174.28,174.28,0,0,1,21.44,0,37.51,37.51,0,0,0,9.43-2.32c.61-.17.78.06.64.59a41.24,41.24,0,0,1-13,3.9c-11.93,2-19.25,9-24.59,18.36a37.51,37.51,0,0,0-2.46,5.05c8.29-6.05,16.62-12,26.93-14.85-3.23,1.8-6.48,3.58-9.71,5.39C1418.05,377.44,1410.49,384,1402.46,389.93Z"/><path class="cls-16" d="M1389.93,348.81c1.38,2.05.46,4.41,1.06,6.62.73,2.71.6,5.61.84,8.43,0,.37-.09.74-.13,1.11l-.29,0q-1.07-6.64-2.11-13.28C1390.35,350.9,1389.75,349.78,1389.93,348.81Z"/><path class="cls-17" d="M1439.72,356.34h-21.44c.72-.79,1.71-.56,2.62-.56,5.4,0,10.8,0,16.2,0C1438,355.78,1439,355.55,1439.72,356.34Z"/><path class="cls-18" d="M1449.79,354.61l-.64-.59c.8-1.24,2.33-1.59,3.5-2.41A6,6,0,0,1,1449.79,354.61Z"/><path class="cls-19" d="M1457,251h-8.32C1451.49,250.63,1454.25,248.93,1457,251Z"/><path class="cls-18" d="M1458,255.09c0,.38,0,.76,0,1.15-1.3-.1-2.27-.81-3.58-1.41C1455.89,254.27,1456.85,255.35,1458,255.09Z"/><path class="cls-8" d="M1408.81,376.6c-.21,1.55.6,3.21-.59,4.65C1408.44,379.7,1407.62,378.05,1408.81,376.6Z"/><path class="cls-8" d="M1408.21,368.5c1.17,1.24.42,2.71.59,4.06C1407.66,371.32,1408.42,369.85,1408.21,368.5Z"/><path class="cls-3" d="M1467.59,316.23a9,9,0,0,0,.86.34c3.5,1.08,7.32.38,10.94-.32s7.44-1.39,10.93-.29c4.82,1.53,7.7,6.06,9.41,10.48s2.75,9.18,5.78,12.95c2.71,3.38,2.86-2.81,2.87-4.25l.11-13.26c0-3.71,0-7.69-2.35-10.73-2.63-3.44-7.47-4.75-12-5.51-7.58-1.29-20.31-3.56-27.75-.9C1460.5,306.85,1463.08,314.09,1467.59,316.23Z"/><path class="cls-7" d="M1451.45,324.09c0,4.29-.21,8.84-2,12.86-.74,1.68-1.62,4.14-3.78,3.71-1.81-.36-2.89-3.22-3.14-4.62-.38-2.12,0-4.28,0-6.43a20.73,20.73,0,0,0-1.7-8.48,7.19,7.19,0,0,0-1.76-2.67c-2.37-2.07-6.2-1.37-9.35-.53-6.09,1.64-12.31,3.31-18.66,3.1-7-.23-5.69-5.82-2.59-9.88,2.63-3.44,7.47-4.75,12-5.51,7.58-1.29,20.32-3.56,27.76-.9C1454.57,307,1451.52,318.62,1451.45,324.09Z"/><rect class="cls-20" x="1339.7" y="788.68" width="239.51" height="13.33" rx="1.62" ry="1.62"/><rect class="cls-21" x="1350.59" y="802.01" width="217.74" height="79.97"/><rect class="cls-22" x="1339.7" y="881.99" width="239.51" height="16.66"/><rect class="cls-23" x="1327" y="898.65" width="264.91" height="16.66"/><rect class="cls-21" x="1350.59" y="802.01" width="217.74" height="79.97"/><rect class="cls-10" x="1386.88" y="812.01" width="145.16" height="18.33"/><rect class="cls-24" x="1479.42" y="802.01" width="68.95" height="79.97"/><rect class="cls-24" x="1473.97" y="788.68" width="79.84" height="13.33"/><rect class="cls-24" x="1473.97" y="881.99" width="79.84" height="16.66"/><rect class="cls-24" x="1466.71" y="898.65" width="94.35" height="16.66"/><rect class="cls-24" x="1513.89" y="812.01" width="7.26" height="18.33"/><path class="cls-6" d="M1458,242.44l1.2,0a3,3,0,0,0,1.49-.23,1.06,1.06,0,0,0,.34-1.57,28,28,0,0,0-3-.17"/><path class="cls-9" d="M1458,240.5c-.65,0-1.29,0-1.94.05-.45,0-1.62-.06-1.79.4s.62,1,1,1.21a5.28,5.28,0,0,0,2,.29l.75,0"/><use width="10" height="10" transform="translate(1585.38 175.32) scale(1.67)" xlink:href="#New_Symbol_1"/><use width="10" height="10" transform="translate(1631.45 256.27) scale(1.67)" xlink:href="#New_Symbol_1"/><use width="10" height="10" transform="translate(1563.48 397.95) scale(1.67)" xlink:href="#New_Symbol_1"/><use width="10" height="10" transform="translate(1713.23 393.07) scale(1.67)" xlink:href="#New_Symbol_1"/><use width="10" height="10" transform="translate(1476.02 126.65) scale(1.67)" xlink:href="#New_Symbol_1"/><use width="4.19" height="4.19" transform="translate(1694.36 296.57) scale(1.67)" xlink:href="#New_Symbol"/><use width="4.19" height="4.19" transform="translate(1595.91 292.87) scale(1.67)" xlink:href="#New_Symbol"/><use width="4.19" height="4.19" transform="translate(1590.63 426.3) scale(1.67)" xlink:href="#New_Symbol"/><use width="4.19" height="4.19" transform="translate(1772.88 296.31) scale(1.67)" xlink:href="#New_Symbol"/><use width="4.19" height="4.19" transform="translate(1524.85 185.74) scale(1.67)" xlink:href="#New_Symbol"/><use width="4.19" height="4.19" transform="translate(1618.73 380.44) scale(1.67)" xlink:href="#New_Symbol"/><use width="4.19" height="4.19" transform="translate(1654.35 529.42) scale(1.67)" xlink:href="#New_Symbol"/><use width="4.19" height="4.19" transform="translate(1528.75 260.69) scale(1.67)" xlink:href="#New_Symbol"/><use width="4.19" height="4.19" transform="translate(1651.2 141.28) scale(1.67)" xlink:href="#New_Symbol"/></g></svg>