<svg id="Layer_1" data-name="Layer 1" xmlns="http://www.w3.org/2000/svg" width="668" height="224" viewBox="0 0 668 224"><defs><style>.cls-1{fill:#ed1c24;}</style></defs><title>secflix logo</title><path class="cls-1" d="M126.69,134.7a26,26,0,0,1-9.76,20.79q-9.74,8.16-27.07,9.9c-10.64,1.05-20,.09-28.22-3.07V142.63a103.41,103.41,0,0,0,17.08,4.88,50.18,50.18,0,0,0,12.79.74q7-.56,10.69-3.4a9.38,9.38,0,0,0,3.73-7.87,7.7,7.7,0,0,0-1.64-4.89,16.47,16.47,0,0,0-4.81-3.94,124.77,124.77,0,0,0-12.93-5.8c-6.1-2.45-10.67-4.92-13.72-7.37a28.38,28.38,0,0,1-7.3-8.81A25.6,25.6,0,0,1,62.8,94c0-8.84,3-15.85,9-20.9s14.27-7.51,24.85-7.51a62,62,0,0,1,14.86,1.76,110.75,110.75,0,0,1,14.8,4.86q-3.43,7.74-6.86,15.6a107,107,0,0,0-13.22-4.11,44.44,44.44,0,0,0-10.28-1.08q-6,.1-9.23,2.89a9.12,9.12,0,0,0-3.21,7.21,8.46,8.46,0,0,0,1.29,4.74,13.27,13.27,0,0,0,4.13,3.79c1.89,1.19,6.36,3.31,13.42,6.26,9.33,3.92,15.72,7.87,19.18,11.94S126.7,128.58,126.69,134.7Z"/><path class="cls-1" d="M198.39,155.86q-28.8,1.54-57.55,3.76.06-46.35.14-92.69,28.77,0,57.55-.06,0,7.74,0,15.46-18.18.18-36.37.41l0,20q16.92-.47,33.84-.83l0,15.48q-16.92.53-33.84,1.19,0,11.76,0,23.51,18.18-1,36.37-1.83Q198.4,148.07,198.39,155.86Z"/><path class="cls-1" d="M257.9,80.87c-8,0-14.16,2.67-18.54,7.94s-6.58,12.61-6.6,22c0,19.52,8.33,29,25.07,28.5,7-.18,15.54-1.89,25.53-5.06q0,7.65,0,15.28a84.93,84.93,0,0,1-27.52,5.11c-14.56.46-25.68-2.9-33.37-10.36s-11.53-18.5-11.51-33.1c0-9.18,1.92-17.28,5.71-24.21A38.24,38.24,0,0,1,233,71.06q10.63-5.49,24.93-5.47a76.63,76.63,0,0,1,29.25,6l-6.85,14.83c-3.74-1.51-7.49-2.83-11.28-4A38.32,38.32,0,0,0,257.9,80.87Z"/><path class="cls-1" d="M329.44,152.26q-10.44,0-20.88.12,0-42.78,0-85.56h57.28q0,7.44,0,14.89-18.22,0-36.45,0v22q17,0,33.93.08,0,7.41,0,14.82-17-.13-33.94-.12Z"/><path class="cls-1" d="M389.43,152.91q0-43-.08-86.08h21.19l.09,71.47q20.3.52,40.57,1.32,0,7.73,0,15.45Q420.34,153.61,389.43,152.91Z"/><path class="cls-1" d="M472.52,156.18l-.15-89.3h21.19l.15,90.57Q483.12,156.77,472.52,156.18Z"/><path class="cls-1" d="M603.43,167q-12.06-1.32-24.13-2.51-11.61-19.59-23.24-38.24-11.59,17.37-23.18,34.08-11.32-.92-22.68-1.72,16.55-22.46,33.07-46-15.54-23.46-31.1-45.66l23.38,0q10.8,16.85,21.57,34.35Q567.67,84.48,578.21,67L601,67q-15.69,24.69-31.34,47.83Q586.59,140,603.43,167Z"/></svg>