<svg id="Layer_1" data-name="Layer 1" xmlns="http://www.w3.org/2000/svg" xmlns:xlink="http://www.w3.org/1999/xlink" viewBox="0 0 505 308.35"><defs><style>.cls-1{fill:#e8cf9a;}.cls-2{fill:#002a2d;}.cls-3{fill:#e5b883;}.cls-4{fill:#e2ac83;}.cls-5{fill:#9e0000;}.cls-6{fill:#7c0000;}.cls-7{fill:#00424a;}.cls-8{fill:#094349;}.cls-9{fill:#05646a;}.cls-10{fill:#03494f;}.cls-11{fill:#1c4741;}.cls-12{fill:#075056;}.cls-13{fill:#0a4348;}.cls-14{fill:#024b4f;}.cls-15{fill:#0a4142;}.cls-16{fill:#024b4e;}.cls-17{fill:#045459;}.cls-18{fill:#045559;}.cls-19{fill:#034a4f;}.cls-20{fill:#055357;}.cls-21{fill:#045458;}.cls-22{fill:#074245;}.cls-23{fill:#014349;}.cls-24{fill:#055358;}.cls-25{fill:#035559;}.cls-26{fill:#04585b;}.cls-27{fill:#035459;}.cls-28{fill:#024a4f;}.cls-29{fill:#01454b;}.cls-30{fill:#014146;}.cls-31{fill:#0a4243;}.cls-32{fill:#024c51;}.cls-33{fill:#055156;}.cls-34{fill:#065156;}.cls-35{fill:#024b50;}.cls-36{fill:#024a50;}.cls-37{fill:#05595e;}.cls-38{fill:#056367;}.cls-39{fill:#096a6b;}.cls-40{fill:#08686c;}.cls-41{fill:#066268;}.cls-42{fill:#025155;}.cls-43{fill:#01494f;}.cls-44{fill:#056468;}.cls-45{fill:#045156;}.cls-46{fill:#056267;}.cls-47{fill:#054f55;}.cls-48{fill:#004a51;}.cls-49{fill:#055359;}.cls-50{fill:#056166;}.cls-51{fill:#035156;}.cls-52{fill:#045455;}.cls-53{fill:#107f7e;}.cls-54{fill:#085056;}.cls-55{fill:#0a8386;}.cls-56{fill:#04595d;}.cls-57{fill:#054d51;}.cls-58{fill:#075e62;}.cls-59{fill:#03595d;}.cls-60{fill:#065f65;}.cls-61{fill:#154641;}.cls-62{fill:#0c545a;}.cls-63{fill:#115c62;}.cls-64{fill:#05535a;}.cls-65{fill:#0c555a;}.cls-66{fill:#13797c;}.cls-67{fill:#1f7275;}.cls-68{fill:#176b6f;}.cls-69{fill:#15574e;}.cls-70{fill:#2d4f42;}.cls-71{fill:#09545d;}.cls-72{fill:#405744;}.cls-73{fill:#144;}.cls-74{fill:#606c51;}.cls-75{fill:#526452;}.cls-76{fill:#01424a;}.cls-77{fill:#01434b;}.cls-78{fill:#035257;}.cls-79{fill:#01474c;}.cls-80{fill:#066166;}.cls-81{fill:#004d55;}.cls-82{fill:#04444b;}.cls-83{fill:#afccc4;}.cls-84{fill:#a2d3c9;}.cls-85{fill:#004c53;}.cls-86{fill:#03545a;}.cls-87{fill:#61a6a9;}.cls-88{fill:#6eb2b2;}.cls-89{fill:#024650;}.cls-90{fill:#124543;}.cls-91{fill:#0d4444;}.cls-92{fill:#2b4b3f;}.cls-93{fill:#154342;}.cls-94{fill:#015258;}.cls-95{fill:#004a53;}.cls-96{fill:#03565a;}.cls-97{fill:#055659;}.cls-98{fill:#004952;}.cls-99{fill:#094347;}.cls-100{fill:#07454b;}.cls-101{fill:#9d8d62;}.cls-102{fill:#6e5f41;}.cls-103{fill:#02444b;}.cls-104{fill:#055459;}.cls-105{fill:#01434a;}.cls-106{fill:#105352;}.cls-107{fill:#0a5457;}.cls-108{fill:#065358;}.cls-109{fill:#00444a;}.cls-110{fill:#84b2b0;}.cls-111{fill:#37442a;}.cls-112{fill:#73806e;}.cls-113{fill:#014150;}.cls-114{fill:#0f454f;}.cls-115{fill:#0a8988;}.cls-116{fill:#007374;}.cls-117{fill:#056467;}.cls-118{fill:#03646a;}.cls-119{fill:#0c4344;}.cls-120{fill:#004056;}.cls-121{fill:#838b73;}.cls-122{fill:#184843;}.cls-123{fill:#054f54;}.cls-124{fill:#177f7f;}.cls-125{fill:#0f6469;}.cls-126{fill:#01444b;}.cls-127{fill:#465e4e;}.cls-128{fill:#074346;}.cls-129{fill:#19433d;}.cls-130{fill:#1b443e;}.cls-131{fill:#739f97;}.cls-132{fill:#0e5556;}.cls-133{fill:#05545a;}.cls-134{fill:#014a4e;}.cls-135{fill:#075155;}.cls-136{fill:#095058;}.cls-137{fill:#075156;}.cls-138{fill:#c3cebe;}.cls-139{fill:#365044;}.cls-140{fill:#015158;}.cls-141{fill:#cad8c8;}.cls-142{fill:#054950;}.cls-143{fill:#99dcd2;}.cls-144{fill:#aed8c8;}.cls-145{fill:#9cd1c7;}.cls-146{fill:#72c4ca;}.cls-147{fill:#5ed2d2;}.cls-148{fill:#044d53;}.cls-149{fill:#1a5a58;}.cls-150{fill:#095462;}.cls-151{fill:#085055;}.cls-152{fill:#044247;}.cls-153{fill:#0f443d;}.cls-154{fill:#475844;}.cls-155{fill:#065252;}.cls-156{fill:#002528;}</style><symbol id="New_Symbol_4" data-name="New Symbol 4" viewBox="0 0 1 1"><circle class="cls-1" cx="0.5" cy="0.5" r="0.5"/></symbol></defs><title>show_4</title><path class="cls-2" d="M463.05,141.5c-3.23,0-6.45,2.45-10.49,2.45-38.72,2.45-83.09-1.64-113.74,26.17a398.87,398.87,0,0,0-45,10.45c0,.33-.08.66-.14,1,.06-.34.1-.67.14-1q-5,1.53-9.88,3.26l.06.2-.06-.2c-16.45,5.87-32.11,13.71-45.87,24.88.54.48,1.06,1,1.56,1.49-.5-.51-1-1-1.56-1.49A121.49,121.49,0,0,0,225.88,220c-5.65,6.55-16.14,5.73-22.59,8.18-12.1,5.73-13.71,20.45-10.49,32.72-3.22,0-5.64,3.27-6.45,4.9C177.48,283,158.12,287.9,142,296.89c-4.46,1.94-7.9,6.43-9.16,11.46H505v-167C491.25,142.19,477.15,139,463.05,141.5Z"/><path class="cls-3" d="M158.12,207.74c-11.3-6.54-17.75-18.81-29.05-26.17-17.74-11.45-37.11.82-56.47,4.09-4,0-7.26.82-11.29-.82-20.2-10.23-40.39-9.85-61.31-4V308.35H132.82c1.26-5,4.7-9.52,9.16-11.46,16.14-9,35.5-13.9,44.37-31.08.81-1.63,3.23-4.9,6.45-4.9-3.22-12.27-1.61-27,10.49-32.72,5.06-1.92,12.59-1.85,18.33-4.87a4,4,0,0,0-1.39-.85C199.26,215.92,176.67,218.38,158.12,207.74Z"/><path class="cls-4" d="M221.85,200.38c-33.08-7.36-60.51-27-92.78-32.71-32.26-4.91-65.34.82-97.61-11.45-10.22-3.71-21.11,3.32-31.46,7.72v16.93c20.92-5.88,41.11-6.26,61.31,4,4,1.64,7.26.82,11.29.82,19.36-3.27,38.73-15.54,56.47-4.09,11.3,7.36,17.75,19.63,29.05,26.17,18.55,10.64,41.14,8.18,62.11,14.73a4,4,0,0,1,1.39.85,14.42,14.42,0,0,0,4.26-3.31A121.49,121.49,0,0,1,238,208.71C233.41,204.48,227.63,201.12,221.85,200.38Z"/><path class="cls-5" d="M182.32,132.5c-13.72-4.91-25-16.36-37.11-26.17-3.23-2.46-7.26-3.28-10.49-4.09C118.59,99,103.26,97.33,90.35,86.7c-4.84-4.91-4.84-13.09-9.68-17.18-15.33-13.9-24.2-31.08-41.14-43.35C31,20.2,22,10.45,19.73,0H0V163.94c10.35-4.4,21.24-11.43,31.46-7.72,32.27,12.27,65.35,6.54,97.61,11.45,32.27,5.72,59.7,25.35,92.78,32.71,5.78.74,11.56,4.1,16.18,8.33a147.47,147.47,0,0,1,38.25-22C257.13,153,216.82,144.94,182.32,132.5Z"/><path class="cls-3" d="M266.21,156.22c-.8-4.09-6.45-8.18-11.29-10.64-9.68-4.9-20.17-3.27-29.85-7.36-16.94-8.18-30.65-21.26-50-27.8-3.23-.82-7.26-4.09-9.68-7.37-5.65-7.36-8.07-16.35-15.33-21.26-19.36-13.09-30.66-28.63-44.37-46.62-2.42-2.45-5.65-4.91-8.87-4.91-17-1.63-36.31-11.45-39.53-28.62C57,1,56.65.49,56.38,0H19.73C22,10.45,31,20.2,39.53,26.17,56.47,38.44,65.34,55.62,80.67,69.52c4.84,4.09,4.84,12.27,9.68,17.18,12.91,10.63,28.24,12.26,44.37,15.54,3.23.81,7.26,1.63,10.49,4.09,12.1,9.81,23.39,21.26,37.11,26.17,34.5,12.44,74.81,20.46,94,54.23,2.52-1,5.06-2,7.62-2.9C280.58,172.54,267.82,169.23,266.21,156.22Z"/><path class="cls-1" d="M273.47,137.41c-2.42-4.09-.8-9-5.64-13.09C247.66,109.6,230.72,96.51,212.16,81c-2.42-1.63-2.42-7.36-4-10.63C195.22,48.26,173.44,27.81,182.32,0H56.38c.27.49.58,1,.9,1.64,3.22,17.17,22.58,27,39.53,28.62,3.22,0,6.45,2.46,8.87,4.91,13.71,18,25,33.53,44.37,46.62,7.26,4.91,9.68,13.9,15.33,21.26,2.42,3.28,6.45,6.55,9.68,7.37,19.36,6.54,33.07,19.62,50,27.8,9.68,4.09,20.17,2.46,29.85,7.36,4.84,2.46,10.49,6.55,11.29,10.64,1.61,13,14.37,16.32,17.69,27.61q4.91-1.74,9.88-3.26C296.25,162.41,279.81,152.67,273.47,137.41Z"/><path class="cls-1" d="M337.2,69.52C285,68,239.34,37.5,203.76,0H191.19C231.53,37.62,281.54,71.16,338,71.16,336.4,71.16,338,70.34,337.2,69.52Z"/><path class="cls-5" d="M340.43,75.25C282.67,72.81,220.93,49.33,186.14,0h-3c34.69,49.89,98.42,75.25,158.12,76.88-59.7-1.63-123.43-27-158.12-76.88h-.8c-8.88,27.81,12.9,48.26,25.81,70.34,1.61,3.27,1.61,9,4,10.63,18.56,15.54,35.5,28.63,55.67,43.35,4.84,4.09,3.22,9,5.64,13.09,6.34,15.26,22.78,25,20.31,43.16a398.87,398.87,0,0,1,45-10.45c30.65-27.81,75-23.72,113.74-26.17,4,0,7.26-2.45,10.49-2.45,14.1-2.49,28.2.69,41.95-.16V119.75a33.8,33.8,0,0,1-14.52-9.33c-12.1-11.46-18.56-26.18-34.69-31.9-1.61-.82,0-7.36-1.61-9.82-8.07-8.18-13.72-18-21.78-25.35-32.27-27-75.83-22.08-115.36-32.72a13.93,13.93,0,0,1-9.68-8.18A9.89,9.89,0,0,1,306.24,0H203.76C239.34,37.5,285,68,337.2,69.52c.81.82-.8,1.64.81,1.64C281.54,71.16,231.53,37.62,191.19,0h-5.05c34.79,49.33,96.53,72.81,154.29,75.25,0,.81,1.61.81.81,1.63"/><path class="cls-6" d="M306.24,0a9.89,9.89,0,0,0,1.12,2.45A13.93,13.93,0,0,0,317,10.63c39.53,10.64,83.09,5.73,115.36,32.72,8.06,7.36,13.71,17.17,21.78,25.35,1.61,2.46,0,9,1.61,9.82,16.13,5.72,22.59,20.44,34.69,31.9A33.8,33.8,0,0,0,505,119.75V0Z"/><path class="cls-7" d="M505,300.71v-34.9c-.56-.57-1.49-1.11-1.39-1.91.84-6.42-1-13,1.39-19.35V229.83c-1.12-2.73-1.49-5.46,0-8.18V196.29a3.18,3.18,0,0,0-3.21-1.13c-3.19.78-5.92-.52-8.71-1.66a17.42,17.42,0,0,1-3.2-1.68c-1.11-.81-3-1.17-1.06-3.3,1-1.09-.35-2.22-1.4-2.86a18.29,18.29,0,0,1-3.91-2.81c-1.87-1-3.76-2.18-5.24.56-.56,2.47.47,4.42,1.88,6.3-1.8-2-2.17-5.63-5.78-5.76-4.23,1.8-4.76,4.23-1.85,8.38,3.33,1.86,6.24,4.8,10.51,4.33a14.93,14.93,0,0,1,3.19,1.61c2.12,1.37,2.55,2.94.74,4.89-.57,1.21-1.49,2.47-.07,3.66,1.08.91,2.3.46,3.45.06a17.43,17.43,0,0,0,5-3.32,8.73,8.73,0,0,1,3.49-2c.79-.18,1.63-.42,2.28.26a2.09,2.09,0,0,1,.07,2.65,16,16,0,0,1-4.52,4.6c-1.94,1.47-2.86,3.23-1.74,5.65a13.29,13.29,0,0,0,3.86,6.46c2.36,2,1.71,4.64-1.49,7.94a41.48,41.48,0,0,0-7.52,21.21,46.45,46.45,0,0,0-.51,6.48c.29,4.33-2,5.76-5.62,6.13-3.4,2-7.39,1.06-10.93,2.24-.61.14-1.08.1-.84-.79.93-3.34-.27-5.31-3.64-5.85-4.31-.69-4.54-5-6.55-7.65-.22-.35-.51-.9-.79-.88-3.35.23-5.33-2.51-8-3.67a19.28,19.28,0,0,0-9.46-1.55,3.17,3.17,0,0,1-2.16-1c-4.43-1.92-5.35-1.62-6.36,2.79-.36,1.56-1.66,1.57-2.42,2.41a4.69,4.69,0,0,0-1.32,3.52c-.06,3.73.32,5.2,2.79,10.81-3.76.15-7.45.17-10.84-2-2-1.3-4.43-.79-6.7-.81-2.21.4-4.3,1.69-6.66.84a84.22,84.22,0,0,1-21.63.33c-2.7-.84-5.55-.84-8.28-1.61a5.61,5.61,0,0,0-4.58,1.07c-3.73,2.37-7.79,1.86-11.7,1-4.07-.93-4.69-3.54-1.85-6.51a45,45,0,0,0,7.2-10.29,22.54,22.54,0,0,1,6.72-8c3.77-4.18,4.76-4.18,6.43,1.26,2.55,8.27,8.6,12.62,15.77,16a51.2,51.2,0,0,1,7.08,3.78,4.92,4.92,0,0,0,1.09.51c2.34,1,4.64,2.13,7.28,1.15,2.28-1.14,4.09-2.64,4.05-5.53a4.21,4.21,0,0,0-1.63-3.22c-1.56-.63-2.19-2.27-3.42-3.26-1.34-.74-3-.81-4.09-2.09a7.2,7.2,0,0,0-1.37-.84,11.7,11.7,0,0,1-4.15-2.44c-3.36-1.68-5-4.7-6.24-8.07a17.54,17.54,0,0,0-2.07-4.81,5,5,0,0,0-4.53-2.19c-5.21.52-7.92-2.33-9.58-6.82-2.26-3.67-4.17-.77-6.17.35-.37.07-.73.16-1.09.25a20.44,20.44,0,0,0-5,3.28c-1.26,1-2.55,2.05-4.22.75-.57-.4-1.27-1.08-.91-1.6,2.18-3.13,2.15-7,3.61-10.35,1.3-1.25,1.94-4.33,4.59-1.62a4.55,4.55,0,0,0,1.93,1.4c3.49-.77,4.67-2.24,3.44-5.05-1.54-3.56-3.54-6.9-7.43-8.42a6.41,6.41,0,0,0-3.13.73c-2.59,2.07-3.37,5.12-4.23,8.12-.09,2.09-2.66,3.62-1.38,6-.65,2-1,4.17-3.35,4.93a5.31,5.31,0,0,0-2.53,1.28,4.19,4.19,0,0,0-.76.92,4.36,4.36,0,0,0-.41,1.11c-.21,2.21,1.11,3.45,2.82,4.36,1.05.55,2.18,1,2.49,2.31,1.36,2.22.45,4.1-.76,6a74.43,74.43,0,0,0-7.7,14.65c-.19.3-.36.62-.53.94-1,1.44-2.54,1-3.88,1.32-2.07.56-3.65,2-5.48,3-4.59,1.56-6.34.92-8.43-3.31a4.53,4.53,0,0,0-3.8-2.61,6.18,6.18,0,0,1-4.58-2.94c-2.82-4.25-1.79-7.12,3-8.45.39-.11.78-.19,1.17-.28,6.54-1.63,7-2.4,4.9-8.95-.21-.65-.37-1.3-.54-2-1.79-4.68-4.79-8.63-7.63-12.65-1.28-1.82-3-3-5.42-2.66a3.48,3.48,0,0,0-2,1.29c-.73,1.07,1,1.7.48,2.75,2.14,4,.8,7.22-1.76,10.39-1.65,2-3.94,3.81-3.71,6.92a4.25,4.25,0,0,0,.34,1.1,15.21,15.21,0,0,0,3.42,3.28c1,.84,1.78,2,.6,3s-2.24-.13-2.95-1.1-.85-2.54-1.88-3.48a3.59,3.59,0,0,0-2.17-.73,11.13,11.13,0,0,1-8.93-5.16,32,32,0,0,0-8.36-8,3.68,3.68,0,0,0-1.48-.86c-2.74-.12-2.81,2.07-3.29,3.92.41,2.52,2.53,3.72,4,5.4.59.44,1.25.78,1.82,1.27.93,1,3.34,1.72.52,3.32a4.35,4.35,0,0,0-1.27,1.36c-2.61,4.34-1.63,9-1.05,13.56.12.91.63,1.75.72,2.73-1.53.09-2.79-.59-4.15-.47a20.45,20.45,0,0,1-4.82,0c-5.31-.61-6.6.12-8.71,5-.21.49-.34,1-1.29,1.2a10.05,10.05,0,0,0-4.73-4.48,2.06,2.06,0,0,1-1.21-3c.43-1.14.8-2.35,0-3.52a7.16,7.16,0,0,0-4.52-1.82c-3.67-1-4.8-2.44-4.5-5.74a7.41,7.41,0,0,0-6.38-7.83,18.63,18.63,0,0,0-7.13.28,2.65,2.65,0,0,0-1.17,1.24c-.37,2.51,2.3,1.67,3.08,2.91s-.56,1.25-1,1.8a1.77,1.77,0,0,0-.59,1.5,3.57,3.57,0,0,0,1.39,1.76c3.43,1.75,2.64,5.1,3,8,1.68,1.21,3-.29,4.5-.6,2.5-.54,3.33.55,2.71,2.82-.53,1.94-1.19,4.16-3.28,4.77-1.67.48-2.93-1-3.86-2.35-1-1.5.93-3.12-.08-4.67-.83-2.08,1-4.85-1.65-6.46a6.9,6.9,0,0,0-5.24-.19,5,5,0,0,1-2.17-.21c-2.88.07-3.32-1.48-2.5-3.87-1-3-3.52-2.71-5.86-2.78-2.17.12-4.67-.48-5.11,2.93-.16,1.23-1.29.38-2,.42-3.9.24-4.88,1.61-4,5.74,1.16,1.5,2.45,2.8,4.5,2.86,3,.82,6.05,1.55,9.15.33a22.44,22.44,0,0,1,8.43,2.86.92.92,0,0,1,0,1.15c-1.77,1-3.3,2.21-3.14,4.72-3.45-1.26-4.71-5.3-8.39-5.47-2.13-.74-3-3.8-5.75-3.37a4.1,4.1,0,0,0-2.91,3.67,5.66,5.66,0,0,0,.59,2.39c.61,1.2,1.64,2.47-.77,2.89-3.32.59-6.66,1.37-9.75-.73-2.76-1.88-5.53-1.67-8.4-.36-1.22.56-2.48,1.05-3.73,1.54-3,1.19-5.43.51-7.3-2.28a62.54,62.54,0,0,0-5.84-7.79c-2.1-2.25-4.66-3.12-7.17-1.1-2.7,2.18-5.78,3.31-8.92,4.45a14.54,14.54,0,0,0-3.11,2.56c-2.72,3.56-6.39,1.71-9.71,1.83-.86,0-1.08-.77-1.06-1.45.07-2.37-1.89-3.47-3-5.12a148.37,148.37,0,0,0-12.63-15.44,30.11,30.11,0,0,0-3.55-2,4,4,0,0,0-2.35-.35,29.16,29.16,0,0,0-10.49,12.47,3.77,3.77,0,0,0,0,3.15,20.44,20.44,0,0,0,5.84,7.2c2.95,2.51,4.65.7,6.27-1.78.91-1.39,1.46-3.9,4-1.8A33.42,33.42,0,0,0,145.1,254a3.27,3.27,0,0,1,.72,1s-.31.13-.35.1c-1.57-.25-2.95-1.13-4.55-1.15-1.17-.32-2.52-.79-3.49,0-3.47,2.7-7.35,1.55-11.13,1.49-2.81.18-5.56.81-8.36,1.07-5.46.16-10.91.76-16.39,0A28.39,28.39,0,0,1,95,254.86a69.07,69.07,0,0,0-10.37-.49,86.47,86.47,0,0,1,9.66.36c1.5.17,3.1,0,3.78-1.62.77-1.89-.51-3.06-1.82-4.08-3.16-2.47-6.83-2.93-11.66-2.68,3-.36,5.16-.08,7-1.35a2.67,2.67,0,0,0,.82-3c-4.45-4.41-12.17-5.72-17.4-2.95a4.23,4.23,0,0,0-1.17.57c-3.92,4.07-4.09,5.39-1.21,9.07l.86.63c.37.3.8.54,1,1-2.3,2.49-4.5,2.82-6.12.54-4-5.58-9.4-8.76-15.75-10.64-4.14.83-4.43,1.53-2.12,5.06C44,238.91,44,238.91,44.74,235c-2-3.45-4.34-6.32-8.89-5.52a5.36,5.36,0,0,0-2.22.84c-1.9,1.27-3.23,3.45-5.76,3.74-5.49,4-10.52,8.79-16.87,11.54-3.87.67-7.9.87-11,3.83q0,29.44,0,58.88H505Z"/><path class="cls-8" d="M8.89,241.26c-.22.87.07,1.91-.8,2.57.89,1.54,1.09,1.54,3.14,0a4.64,4.64,0,0,0,1.14-2,3.63,3.63,0,0,1,1.11-2.68A11.64,11.64,0,0,0,15.1,238a3.89,3.89,0,0,0,1-2.43c-.18-1.72-1-3.44.09-5.14a3.93,3.93,0,0,0-.06-2.28A2.33,2.33,0,0,0,15,226.92a3.09,3.09,0,0,0-1-.16,4.42,4.42,0,0,1-2.34,0,3.35,3.35,0,0,1-1.7-2.35,4.9,4.9,0,0,0-.44-1,10.36,10.36,0,0,1-1.6-3.31,8.76,8.76,0,0,0-2.7-3.55c-2.17.22-2.42-4-5.2-2.34v2.45c.72,2.39,2.75,3.84,4,5.83.51.79,1,1.57,1.55,2.36,1.57,2.3,2,5.45,4.8,6.84a.38.38,0,0,0,.11.52C11.73,235.6,9.85,238.35,8.89,241.26Z"/><path class="cls-9" d="M505,244.55a9.78,9.78,0,0,0-2.45,7c-.07,3.74.58,7.55-.5,11.23-.88,3,.39,3.6,2.95,3Z"/><path class="cls-10" d="M505,195.48c-1.74-.37-1.36-1.51-1.15-2.8.4-2.35,1-4.78-.46-7-.48.27-1,.69-1,1.19.09,5.1-3.11,6-7.19,6-1.08.56-2.48.55-3.13,1.86,4.06,2.53,8.48,2.13,12.91,1.63Z"/><path class="cls-11" d="M10.79,243c-1,0-1.4,1.92-2.7.79-1.46,3.9-4.52,4.49-8.09,4v1.64L11.3,247a1.28,1.28,0,0,0,.39-.94A4.44,4.44,0,0,0,10.79,243Z"/><path class="cls-12" d="M505,221.65c-2.49,2-2.49,5.08,0,8.18Z"/><path class="cls-13" d="M4,222.57a9.81,9.81,0,0,0-4-5.83v4.09C1.82,220.27,2.72,221.91,4,222.57Z"/><path class="cls-13" d="M0,214.29c2.12.32,2.46,3.36,4.85,3.27a1.4,1.4,0,0,0,.47-.92c-.05-.87-.65-1.22-1.34-1.48H4c-.92-.86-1-3-3-2.19l-.95.49Z"/><path class="cls-14" d="M126.65,246.19c-.66-3.63,1.75-6.22,3.81-8.19s3.62-4.85,6.08-6.61c.79-3.2-1.3-3.87-3.66-4.3a5.51,5.51,0,0,0-1.28.13,6.09,6.09,0,0,0-2.18,1.18c-2.29,2.61-1.76,6.43-3.83,9.12-.13.17.09,2.62-1.13.44-2.3.3-4.37,1.88-6.82,1.16-3.24,1.69-2.31,5.47-3.88,8-.28.46.18,0-.19.33s-.13-.39-.36-.51a8.2,8.2,0,0,1-2.75-3c-1.37-3-1.73-6.76-5.54-8.07a2.79,2.79,0,0,0-1.69,0c-1.15.64-2,1.7-3.09,2.42a8.59,8.59,0,0,0,.51,8.81c2.13,3.61.17,7.41-3.85,7.76A2.73,2.73,0,0,0,94.38,256c6.2,2.54,12.7,2.8,19.21,2.2,1.36-.12,2.94.54,4.19-.56.76-1.51,2.83-1.9,3.15-3.78.14-.91.54-1.76.68-2.64.45-2.73,1.92-3.34,4.3-2.42C126.87,248.14,126.18,247,126.65,246.19Z"/><path class="cls-15" d="M67.12,248.64l-1.75-1.79c-.32-.67-1-1-1.48-1.49-.56-1.09-2.13-1.52-2-3.09l0,0a.61.61,0,0,1-.64-.28c-.93-1.83-1.09-4-2.61-5.57-.75-1.66-1.53-3.29-2.25-5s.24-2.69,1.7-3.33a2.06,2.06,0,0,0,.68-1.47,169.13,169.13,0,0,1,11.22-14.07c1-2.07-.24-3.22-1.73-4.09s-2.74.11-3.73,1.26c-1.64,1.93-2.63,4.27-4,6.38l-1.5,2.3c-1.38.44-2,1.68-2.75,2.74-2.18,3-2.17,3-4.09-.28l0,.06a18.65,18.65,0,0,0-2.53-5.8l-.63-.9a2,2,0,0,0-.83-.56c-1.86-1.2.77-1.95.3-3a3.82,3.82,0,0,0-.27-2.38,1.89,1.89,0,0,0-2-1.05c-1.48.52-1.74,2.07-2.59,3.12a4.38,4.38,0,0,0-.49,1.08,4.3,4.3,0,0,0-.28,2.89c1.71,3.53,3.63,7,5.17,10.58a6.66,6.66,0,0,1,.76,2.5,7,7,0,0,1,0,2.92A2.05,2.05,0,0,1,47,232.26a5.77,5.77,0,0,1-3.44-2.17c-3-4.15-2-8.94-2.17-13.54a2.67,2.67,0,0,0-.88-1.61c-2.69-.51-3.64,1.11-3.74,3.4a9.74,9.74,0,0,1-1.55,4.89c-.23,2,1.48,4-.21,5.87a1.58,1.58,0,0,0,.49,1.54c4.46-1.15,6.14,2.87,8.88,4.91,2.5,2.19,4.21,5.51,8.07,5.73a60.91,60.91,0,0,1,7.77,3.45,17.52,17.52,0,0,1,7.12,7c1.61,3,4.42,2.13,6.65,1.22,1.35-.54,3.69-1.76,1.63-4.17-2,.37-1.83,3.93-4.58,3.14l0,0C69.83,250.65,68.32,249.83,67.12,248.64Z"/><path class="cls-14" d="M313,233.11c.1-2.76,2.35-4.11,3.83-5.94,4.24-5.23,4.51-8.09,1-12.06-3.31-.26-6.63,1.84-8.23,5.45-.49,1.09-.95,2.19-1.45,3.14.32-1.06,1.31-2.35-.57-3.16-1.2,0-1.83,1-2.59,1.64-1,1-2,1.15-3-.06-2.1-1.64-.65-2.6.66-3.59.2-2.34-1.52-3-3.06-2.6-3.71.85-7.59.61-11.24,1.8-2.45,1.67-2.92,3.9-1.81,6.58.34.5.72.92,1.41.7,1.05-.93.75-2.86,2.4-3.35a.82.82,0,0,1,.85.87c3.66,4.06,8.1,7.31,11,12.18,1.07,1.78,4.34,1.6,6.75,1.64C310.21,235.12,312.16,234.82,313,233.11Z"/><path class="cls-16" d="M368.67,200.38c2.6,1.93,4.29,4.64,6.1,7.26,2,2.87,1.13,4.4-2.06,5-1.76.69-3.07,2.36-5.12,2.43a3.3,3.3,0,0,0-.95.53c-2.25,3.24,1.24,4.79,2,7.14a2.12,2.12,0,0,0,2.11-.15c1.14-.77,2.28-1.78,3.52-.14a2.83,2.83,0,0,0,2.46-1.7c.84-1.68,1.61-.55,2.38.07a13.24,13.24,0,0,1,7.32-4.28c1.13-.25,2.35-.58,2.58-2.08a10,10,0,0,1-4-6.12c-1.21-4.74-5.22-10.65-9.18-14.59,3.9-3.17,3.79-4-.81-6.07a6.11,6.11,0,0,1-3.53-3.12c-.48-1.11-1.21-2.23-2.77-1.46-1.28,3.27-.3,6.73-.88,10.07C369.47,195.42,368,198,368.67,200.38Z"/><path class="cls-17" d="M484,264.18c-4.24-.85-5.41-1.53-6.84-3.21-1.12-1.32-1.28-2.54.18-3.39,4.49-2.64,2.1-6,1-9.19a32.41,32.41,0,0,0-2.45-4.66c-.86-.93-.77-2.34-1.62-3.26h0a.94.94,0,0,0-1.08-.11c-2.55,3.86-7.23,3.23-10.7,5.17-1.77,1.45-3.3,3-1.93,5.56a22.52,22.52,0,0,0,3.18,6.87c.79,1.32,1.79,2.28,3.51,2.13,4.16-.37,4.44,1.75,3,4.92a5,5,0,0,0,1.59,1.62C476,266,480.23,266.17,484,264.18Z"/><path class="cls-18" d="M339.63,246.19c-1.06-7.2-5.67-12.67-8.89-18.81,2.14,7.63,2.15,7.67-5.34,9.55-2.91.73-5.43,1.57-5.15,5.42.32,4.28,3.22,8.6,6.47,8.64,2.81,0,4.15.73,4.21,3.82,0,2.05,1.13,3.56,3.71,2.91,2.16-.55,4.56.65,6.61-.89a5.48,5.48,0,0,0-1.63-2.09c-1.8-2-2.94-3.92-.5-6.26A2.42,2.42,0,0,0,339.63,246.19Z"/><path class="cls-19" d="M460.63,251.09c-.33-2.21,1.55-3.3,2.43-4.9.69-4.55,1.68-9.07,1.48-13.73a11.57,11.57,0,0,0-2.69-7.5c-2.51-2.82-5.75-2.38-7.54,1q-2.43,4.53-.61,11.41c-.35-1.34-.7-2.68-2.4-2.85-1.69,1.5-1.28,5.32-5,4.59-4.38-.22-4.8,3.34-5.87,6.3,4.14,1.45,8.7.61,12.78,2.42.86.39,2.46-.27,1.21,2.11-.69,1.33,2.07,2.4,3.69,1.34C459.14,250.59,459.7,249.9,460.63,251.09Z"/><path class="cls-20" d="M94.38,256c2.67-.46,5.18,1.34,8.23.55-.81-1.61-2.79-3.33.39-4.69.93-.4,1-2.89-.06-3.88-2.84-2.65-2.73-5.8-2.1-9.16.65-.79.38-1.4-.37-1.91a2.07,2.07,0,0,0-2,.55c-.21.15-.15.58-.41.62s-.2-.35-.12-.61a2.54,2.54,0,0,0-.45-.9,4.3,4.3,0,0,0-1.85-1.21,8.34,8.34,0,0,0-1.8-.2c-5.36-.73-10.73-1.74-15.93.78a9.75,9.75,0,0,1-2.35.15c-.92.23-2.08.17-2,1.63,1.31.45,3.22.53,1.65,2.75,4.72-3.61,9.2-.44,13.74.55a26.57,26.57,0,0,1,3,1.08c1.92,1.56.41,2-.81,2.44-2.79.12-5.63-.39-8.33.79-.74.32-1.7.57-1.58,1.53s1.17.92,1.94.94c2.54.07,5.09.07,7.63.16a3.34,3.34,0,0,1,1.51.5c1.88,1.09,5.13,1.64,4.71,4.11-.36,2.06-3.27.4-5,.72-4.24.77-8.67-.45-12.88,1.28C84.23,255.3,89.37,255,94.38,256Z"/><path class="cls-16" d="M478.35,210.21c3.81,3.43,7.6,6.84,13.16,3.35a2.54,2.54,0,0,1,3.79.74c.28.39.55.4.82,0-1-1.73-.77-3,1.16-3.89,2.24-1.05,3.77-3,5.3-4.87a4.06,4.06,0,0,0,.21-4.94c-1-1.46-2.57-1-4-.7-2.24.45-3.71,2-5.32,3.45a10.85,10.85,0,0,1-4,2.52c-.73.22-1.57,1-2.18.24-.75-1,.66-1.59.84-2.46-2.21-1.95-3.33-4.76-5.34-6.87-2.88-1-4.82.27-6.33,2.63-.64,2.53.78,4.59,1.57,6.78C478.43,207.49,479.51,208.73,478.35,210.21Z"/><path class="cls-21" d="M388.83,214.29c-2,1.4-4.55.94-6.77,2s-3.16,2.21-2.91,4.54c2,7.2,3,8,10.24,8.14,1.71,0,3.17.3,4.29,1.67.05-1.09,0-2.43,1.16-2.82,3.6-1.23,4.28-3.7,3.28-7-.35-1.18.71-1.64,1.18-2.41-1.67-1.8-2.39-4.28-4.16-6-1.65-1-1.24-4.1-4-3.92C389.9,210.18,390,212.48,388.83,214.29Z"/><path class="cls-22" d="M35.64,224.23a4.68,4.68,0,0,0,2.29-5,3.49,3.49,0,0,1,2.28-4.13,6.36,6.36,0,0,0,1.84.23,2.47,2.47,0,0,0,1.28-.61l.24-.42c.27-.82.53-1.65.79-2.48-.35-.26-.68-.53,0-.8,1.89-.35,1.56-1.87,1.61-3.18.24-.27.48-.55.71-.83a20.68,20.68,0,0,0,1.21-3,8.17,8.17,0,0,1,.81-3,6.68,6.68,0,0,1,2.18-3.58,5.15,5.15,0,0,0,1.07-2c.23-1.54,1.27-3.38-.65-4.35-2.2-1.12-3.33.77-4.48,2.25a9.82,9.82,0,0,0-1.51,2.84c-.55,1.79-1.28,2.39-3.17,1.11a3.35,3.35,0,0,0-4.89,1l.13,1.29a2.64,2.64,0,0,0,.79,2.52c1.11.95,1.69,2.35,2.76,3.29l.32.11a2.91,2.91,0,0,1-.24.31c-1.64,1.22-.94,4.28-3.61,4.63l-.75-.6c-1.3-1.58-.46-3.58-1-5.31a4.5,4.5,0,0,0-.59-1c-1.48-2.51-1.64-5.43-2.53-8.12-.59-1.75-1.5-3.53-3.69-2.7-2,.75-1.35,2.54-.95,4.17.73,3,2.21,5.82,2.45,9a5.58,5.58,0,0,0,.21,1.14c.56,1.09,1.28,2.14.79,3.49a5.15,5.15,0,0,0,0,1.11,4.53,4.53,0,0,0,.54,1.6c3.17,4.63,3.15,5.89-.2,10.63-.68,1.73-1.32,3.49-2.83,4.72a4.71,4.71,0,0,0-.95,2.18c.19,1.38-.53,2.85.38,4.16,3,.87,3.9-1.93,5.64-3.28-.52-.85-1.41-.54-2.1-.69.11,0,.15,0,.23.06a3.35,3.35,0,0,0,2.47-1.54c.21-.5.4-1,.56-1.51a19.84,19.84,0,0,1,.52-3.05C35.59,224.56,35.61,224.39,35.64,224.23Z"/><path class="cls-23" d="M307.32,220.84c1.33,1.73-.34,2.64-1,3.86-.39.74-2.53,1.05-.89,2.29,1.17.88,1.8-.56,2.49-1.35,2-2.32,2.83-5.39,5.29-7.55a19.1,19.1,0,0,1,4.61-3c.59-1-.7-1-.8-1.64-2.47-.83-5-.42-7.4,0a10.54,10.54,0,0,1-5.09-.22c-1.28-.3-2.7-.05-3.83-.91-.23-1.09,1.19-1.69.84-2.81a1.93,1.93,0,0,0-1-1.55A54,54,0,0,1,294,206.9c-2-.53-3.65-.18-4.29,2.16-.09,2,1.83,2.47,2.67,3.75a4.51,4.51,0,0,0,2.09,1.36c-2.32.31-2.67-2.86-4.8-3.28-5.31-.27-6.25.89-4.92,6.07,1,1.6,2.11,2.77,4.09,1.41,3.18-.5,6.5.94,9.65-1.09a2.65,2.65,0,0,1,4,1.12c-.25,2,1.45,2,2.56,2.6A3.35,3.35,0,0,0,307.32,220.84Z"/><path class="cls-24" d="M288,253.55c-6.51-.88-11.57-6.57-18.58-5.75l-2.43.12a5.84,5.84,0,0,1-.77,1.83c-2.83,2.95-1.13,4.71,1.65,5.73,1.94.71,3.37,1.33,3.43,3.73,0,1,1,1.54,2.06,1.58s2.19-.38,2.2-1.37c.08-7.33,5-6.32,9.62-5.88C286.11,253.63,287.06,253.55,288,253.55Z"/><path class="cls-25" d="M467.11,195.46c2.53.73,3,3.51,4.79,4.95,1.46-2,.67-4.72,2.24-6.66a1.84,1.84,0,0,0-.6-1.55c-2.56-4.24-2.17-6,1.61-7.35.29.33.57.34.84,0-3.47-3.9-8.73-4.13-12.94-6.52-1.66.44-1.69,2.11-2.41,3.27,1.13,1.57,2.89,2.28,4.4,3.33,5.46,3.81,5.45,3.95.43,8.12C465.44,194.24,468.59,193.26,467.11,195.46Z"/><path class="cls-26" d="M226.7,236.44c.3,3.17-1.66,3.71-4,3.11-4.3-1.11-8.64-.53-13-.72-.91.89.35,2.87-1.58,3.26,2.8,2.08,6.21,2.27,9.42,3,2.07.47,2.23,1.12,1.35,2.95-2.05,4.3-2,4.33,3,5.07.79.12,1.55.35,2.33.53-.26-.57-.51-1.15-.77-1.73-.55-2.45-.26-5.08-1.61-7.35-1.48-3,0-4,2.74-4,1.42,0,2.77,1,4.31.5.72-1.44-1.89-1.71-1-3.05s2.46-.61,3.7-.88C230.24,234.82,228.39,236.16,226.7,236.44Z"/><path class="cls-27" d="M418.68,248.64c3.16-.07,5.85-1.69,8.63-2.87s3.41-.12,3.53,2.51c.07,1.55-1.69,4,1.53,4.47l.84-3.29c2.48-2.25.66-4-.66-5.79s-1.83-3.42-.35-5.54c1-1.39,1.15-3.16-1.42-3.4-.14.65-.08,1.67-.46,1.88-5.12,2.85-9.3,7.65-15.67,7.94C414.69,247.23,417.91,246.69,418.68,248.64Z"/><path class="cls-28" d="M255.4,247c-3.29.08-8.76,4.27-8.65,6.43.05,1.11,5.09,5.28,6.36,5.26,2.09,0,5.45-5.88,5.39-9.26C258.47,247,256.62,247.31,255.4,247Z"/><path class="cls-20" d="M120.2,253.55c-.13,1.77-3.86,1.36-2.42,4.09a32.65,32.65,0,0,0,8.87-.82c.94-.69,2-.45,3-.39,2.87.17,4-.86,2.63-3.7a22.73,22.73,0,0,1-5.65-6.54,2.78,2.78,0,0,0-.8,2.45A12.1,12.1,0,0,0,120.2,253.55Z"/><path class="cls-17" d="M350.13,237.21a15.72,15.72,0,0,0,4.85-5.63c1-1.74,2-4,4.82-2.58-.12-1.83-1.48-2.29-2.89-2.75-1.78-.59-2.94-1.7-2.76-3.78-3.48,4.67-6.57,9.53-7.28,15.54C348.17,238.62,348.8,236.46,350.13,237.21Z"/><path class="cls-29" d="M363,209.37c-1,.58-1.84,1.44-3.26,1-1.14-.39-2.74-1.51-3.55.17-1.25,2.6-3.73,4.55-4,7.64,0,.32.71.71,1.1,1.07,1.14.4,1,1.66,1.64,2.44l2.41-.82c1.79-2,2.78-4.7,4.83-6.54-.45-.83-2.26-1.56-.18-2.58C363,211.23,363,210.28,363,209.37Z"/><path class="cls-30" d="M52.44,241.28c-1.5-1.15-3.49-1.51-3.85-4.16-.18-1.4-2.62-1.45-4.22-1.57-2.3.47-3,1.8-1.53,3.7A44,44,0,0,0,50.9,247c.92.69,2.53,1.51,3.21.3,1-1.71-1.11-1.6-2-2.17s-2.33-1.34-2.26-2.59S51.41,241.36,52.44,241.28Z"/><path class="cls-31" d="M28.24,234.74a7,7,0,0,0,.72-4.28c-1.44-.16-1.92,1-2.65,1.89-.19.19-.36.39-.54.59-4,4.5-4,4.5-9.46,2.08a1.67,1.67,0,0,0-1,.53L14.52,238c1.06,3.58-2.58,5.13-3.33,7.93,0,.36.07.72.11,1.08A56.47,56.47,0,0,0,28.24,234.74Z"/><path class="cls-32" d="M132.3,252.73c.24,2.35-.69,3.51-3.12,3.28a2.93,2.93,0,0,0-2.53.81c3.82-.7,8.13,1.68,11.53-2,.4-.43,2,.23,3,.39a3.43,3.43,0,0,0,1.18-2.47c.36-1-.32-2.14.36-3.12-3.1-3.36-3.68-3.16-5.79.53C136.1,251.58,136,255.87,132.3,252.73Z"/><path class="cls-33" d="M492.09,194.66c1.13,0,2.34.21,3.23-.82a2.08,2.08,0,0,0,.34-2.25c-1.11-4-4.5-5.64-7.61-7.58-1.61,1.26-3.22.32-4.84,0,.5,1.05,1.51,1.44,2.39,2s2.68.51,2.49,2.12c-.17,1.42-1.89,1.06-2.84,1.68C487.41,191.75,489.43,193.68,492.09,194.66Z"/><path class="cls-34" d="M431.59,244.54a4.24,4.24,0,0,1,1.62,4.92c1.76-.06,3.36-.39,3-2.74-.2-1.17-.39-2.24.93-2.72a2.52,2.52,0,0,1,3.37,1.37c1.13,0,2.37-.24,2.31-1.64-.13-3.21,1.79-3.46,4.15-3.28-.42-1.79-1.38-3.4-1.75-5.22a1.86,1.86,0,0,0-2.24.15C439.79,239.27,435,241,431.59,244.54Z"/><path class="cls-35" d="M496.12,214.29h-.82c.41,2.72,1.43,5.4-.26,8.14-.85,1.39.54,2.1,1.54,2.76,1.65,1.1,2.81,2.43,2,4.63,4.58-4.74,4.56-6.77-.34-10.84C496.65,217.7,497.14,215.69,496.12,214.29Z"/><path class="cls-36" d="M230.72,252.73a4.89,4.89,0,0,1,4,2c1.26,1.49,2.34,3.69,4.82,3.84.87.06,1.83.91,2.54-.1s-.65-1.25-.91-1.9c-1.26-3.25,2.85-2,3.26-3.95a2.33,2.33,0,0,0-1.51-.84c-3.34,1-5.57-1.88-8.47-2.45C232.41,249.6,230.52,250,230.72,252.73Z"/><path class="cls-28" d="M311.38,236.41c-.14,2.39.07,4.62,2.63,5.77,1.54.68,3.34,1.37,4.16-.57.71-1.7,1.44-3.91-1.08-5.22-1.4-.73-2.71-1.65-4.07-2.48A2.58,2.58,0,0,0,311.38,236.41Z"/><path class="cls-37" d="M171.82,251.85c-.4,0-1-.08-1.17.13-3,4.08-6.73,2.21-10.39,1.65a4.3,4.3,0,0,1-3.23-2.06,5.65,5.65,0,0,0-3.71-2.2c1.24,1.93,4.29,3,2.41,6.39-.64,1.17,1.19.93,2,1C163.23,257.52,168.26,256.83,171.82,251.85Z"/><path class="cls-38" d="M482.39,197.12c1.3,2.7,1.09,6.74,5.66,6.52,3.26-2.17,2.77-4.07-.32-5.95-1.45-.88-2.54-2.44-4.5-2.24C481.73,195.39,481.91,196.18,482.39,197.12Z"/><path class="cls-39" d="M416.28,261.69c1.58-1.43,3.61-.38,5.73-1.08-2.66-1.61-2.59-5.33-5.74-6.25.44,2.67-2.27,3.18-3.25,4.88a5.66,5.66,0,0,0-2.4,2.49h0c-.51.27-.52.54,0,.82C412.77,264.09,414.48,262.57,416.28,261.69Z"/><path class="cls-40" d="M350.93,251.1l-.07-.4c-3.51,1.2-7.15-.26-10.58.41-2.3.45-1.65,3-1.46,4.88a2.79,2.79,0,0,0,2.43.84l4.84-3.27c1.55-.73,3.43-.46,4.82-1.66C350.92,251.63,350.92,251.37,350.93,251.1Z"/><path class="cls-41" d="M370.28,221.65l-1.6.79c-1.46-1.44-3-2.24-4.81-.58-1.46,1.33-2.61,2.75-.85,4.69,1.65,2.72,3.47,1.31,5.05,0,1.78-1.42,3.22-3.29,5.43-4.14.54-.83.46-1.56-.51-1.89A2.11,2.11,0,0,0,370.28,221.65Z"/><path class="cls-42" d="M363,226.55c.09-3.76,1.29-4.63,5.66-4.11,1.26-2.63-3.24-3.78-1.62-6.5-.08-1.34-.28-2.61-1.63-3.29-1.92,3.35-1,7.77-4.11,10.8C360.42,224.32,361.83,225.83,363,226.55Z"/><path class="cls-43" d="M262.24,247c-2.55-1-3.28-2.81-3.5-5.6-.66-8.41-7.84-12.42-14.28-8.28,2.14,0,4.28-.08,6.41,0,3.92.2,6.28,3.15,5.86,7.16A5.93,5.93,0,0,0,262.24,247Z"/><path class="cls-44" d="M365.43,212.65c.1,1.32-.33,2.91,1.63,3.29.26,0,.52,0,.79,0,2-1,5.34-1,4-4.89-1-3-2.45-3.47-4.46-.8C366.79,211.06,366.1,211.84,365.43,212.65Z"/><path class="cls-24" d="M482.39,197.12l.84-1.67c-2.92-.45-6-.44-7.85-3.51-.13-.21-1.2.16-1.84.26v1.64c-.34,2.73.49,4.78,3.23,5.72C478.81,199.14,480.05,196.82,482.39,197.12Z"/><path class="cls-45" d="M234.83,250.23a4.48,4.48,0,0,1-.82-3.11,15.27,15.27,0,0,1-8.13-.12,1.16,1.16,0,0,0,0,1.64,4.59,4.59,0,0,1,2.85,3.17c.28.84.73,2,2,.92C231.61,251.09,233.17,250.58,234.83,250.23Z"/><path class="cls-14" d="M304.13,214.29a19.68,19.68,0,0,0,12.91-.82l1.59-.73A1.72,1.72,0,0,1,317,211l-.39-.41c-2.69-.05-5.15-1.62-7.9-1.28C308.41,212.13,305.78,212.75,304.13,214.29Z"/><path class="cls-46" d="M410.61,262.55v-.82c-7.76,1.76-15.67-1-23.42.83C395,264.05,402.81,263.62,410.61,262.55Z"/><path class="cls-47" d="M476,184.82l-.84,0c2.77,1.91,2.72,6.59,6.87,7.18.73.11,1.41.89,2.39-.18-2.2-2.27-5.4-4-5.25-7.85A5.32,5.32,0,0,1,476,184.82Z"/><path class="cls-48" d="M418.68,248.64c.48-3.21-2.51-2.91-4-4.09h0c-1.51-.77-2.65-.6-3.11,1.26a2.68,2.68,0,0,0,.23,1.05,3.23,3.23,0,0,1,.45,1.33c0,.15,0,.3,0,.45.6,1.24.08,3.33,2.4,3.28C413.56,247.76,416.83,249.1,418.68,248.64Z"/><path class="cls-49" d="M246.85,240.46l-1.61-.82c-1.1-.69-2.13-.88-2.94.43.19,1.5-2,2.76-.41,4.39a12.87,12.87,0,0,1,5.77-.72C250.63,241.83,248.06,241.32,246.85,240.46Z"/><path class="cls-50" d="M293.66,236.38c-4.22,2.43-4.63,9.34-.83,13.89C291.81,245.56,291.08,240.87,293.66,236.38Z"/><path class="cls-51" d="M225.88,248.64V247c-1.78-.08-2.9-1.28-4-2.44.62,2.43-2,5.6,1.61,7.35Z"/><path class="cls-43" d="M242.8,239.65a2.37,2.37,0,0,0,2.44,0l.81-.82a12,12,0,0,1,1.61-3.27c-.86-1.75-2.84-.55-4-1.56-.53.53-1.05,1.06-1.58,1.58C241.89,237,239.33,238.86,242.8,239.65Z"/><path class="cls-43" d="M246.85,240.46c.71,1,2.41,1.71.81,3.28a3.77,3.77,0,0,1,.37,3.41c-.5,1.22-.11,2.06,1.24,2.31C251,245,250.12,241.79,246.85,240.46Z"/><path class="cls-52" d="M247.66,235.55a3.28,3.28,0,0,0-1.16.22c-.82.54-2.43-.71-2.61,1-.15,1.37,1.62,1.15,2.16,2.06,1.08-.14,2.52.44,3-1.12C249.31,236.66,248.48,236,247.66,235.55Z"/><path class="cls-53" d="M142.73,249.58c-1.62,0-1.53,1.17-1.52,2.28,1.14,3.74,2.52,4.21,4.86,1.68Z"/><path class="cls-54" d="M362.21,214.29c-2.92,1.19-4.36,3.49-4.83,6.54C360.63,219.9,360.85,216.66,362.21,214.29Z"/><path class="cls-46" d="M410.62,261.73c1.48-.15,1.87-1.39,2.4-2.49-2.65.57-4.83-1.05-7.24-1.62C406.76,259.75,408.79,260.61,410.62,261.73Z"/><path class="cls-55" d="M292.09,230.62c0-.29,0-.58,0-.88L288,225l-.82-.83c-1-1.82-2.11-1.48-3.18,0C287.3,225.48,289,229,292.09,230.62Z"/><path class="cls-56" d="M146.07,253.54c-2.45,1.94-3.74.39-4.86-1.68,0,1.1,0,2.21,0,3.31l5.62,1.65a2.2,2.2,0,0,0,.85-1.7Z"/><path class="cls-50" d="M293.65,230.63c.56,1.61-.16,3.44.84,5l3.76-1.32Z"/><path class="cls-57" d="M91.15,244.54a1.3,1.3,0,0,0,.39,0c1.65-.47,3.43,3,4.3.78,1-2.62-2.54-2.09-3.88-3.24Z"/><path class="cls-58" d="M311.38,236.41c1.47-.21,1.64-1.3,1.64-2.5,0-.27,0-.53,0-.8-1.87.41-3.7.85-4,3.24Z"/><path class="cls-59" d="M240.36,243.76,238,242.12c-.84-.63-.72-1.6-.83-2.49l-3.07,1.56C236.18,242.66,237.92,244,240.36,243.76Z"/><path class="cls-60" d="M411.43,243.74c-.94,1.6-1.3,3.92-4,3.26,1.27,1.55,3,1.7,4.82,1.64v0a1.07,1.07,0,0,0,0-1.61h0C411.31,246.08,412.37,244.66,411.43,243.74Z"/><path class="cls-42" d="M371.88,211c.45,3.15-2.64,3.3-4,4.89,3,1,3.94-1.1,4.86-3.26Z"/><path class="cls-61" d="M33.94,229l-2.47,1.66h0a2.75,2.75,0,0,0,2.42.81l1.61-.82,0-1.39A1,1,0,0,0,33.94,229Z"/><path class="cls-62" d="M303.78,247.84c.16.18.49.85.84.86.79,0,1-.71.92-1.41a.94.94,0,0,0-1.1-.87C303.79,246.48,303.59,246.93,303.78,247.84Z"/><path class="cls-63" d="M471.92,266.63a1.61,1.61,0,0,0-1.59-1.62c-.33.64-1.57,1-1.07,1.8C470,268,471,266.91,471.92,266.63Z"/><path class="cls-42" d="M370.28,221.65c1.26-.5,2.67-1.6,3.22.81h.81c0-1.06-.11-2.13-1.44-2.34S370.56,220.14,370.28,221.65Z"/><path class="cls-64" d="M350.91,251.9a7.76,7.76,0,0,0-4.82,1.66C347.84,253.43,349.83,254,350.91,251.9Z"/><path class="cls-31" d="M24.27,241c-.24.19-.83.43-.94.81-.16.58.42.88.94,1s1.09,0,1.16-.7S25.1,241.1,24.27,241Z"/><path class="cls-65" d="M444.17,255.55c.14.82.33,1.49,1.09,1.57.21,0,.64-.45.68-.73a1.13,1.13,0,0,0-1-1.4C444.69,255,444.4,255.38,444.17,255.55Z"/><path class="cls-60" d="M406.58,246.18a5.09,5.09,0,0,0-4.06-2.43A5.37,5.37,0,0,0,406.58,246.18Z"/><path class="cls-66" d="M244.44,250.25l-1.61,2.5,1.57-.11C244.73,251.85,247.25,251.1,244.44,250.25Z"/><path class="cls-15" d="M60.2,249.25l.59-.64a2.85,2.85,0,0,0-.83-.53c-.14,0-.49.22-.55.4C59.28,249,59.6,249.17,60.2,249.25Z"/><path class="cls-17" d="M355,221.65c0-1.19-.16-2.27-1.64-2.44a5.9,5.9,0,0,1,.82,3.26C354.42,222.2,354.69,221.92,355,221.65Z"/><path class="cls-67" d="M147.66,255.12l-.85,1.7c.62,0,1.44.29,1.68-.51C148.58,256,148,255.53,147.66,255.12Z"/><path class="cls-68" d="M291.21,222.53c.47-.12,1.22-.2.92-.85-.44-1-1.16-.72-1.77,0Z"/><path class="cls-69" d="M132.25,228.21c-.27-3,1.39-7-3.88-7.24h0c-2.32.18-2.34-1.27-1.79-2.82a42.62,42.62,0,0,0,1.65-6.47c.52-2.13,1-4.25,1.57-6.38-2.12-.44-2.64,1.28-3.36,2.63-1.18,2.22-1.64,4.72-2.45,7.08-.48,2.3-1.84,4.41-1.52,6.9a3,3,0,0,0,2.63,2.42c3.77-1.42,4.64,2.06,6.45,3.94A3.51,3.51,0,0,0,132.25,228.21Z"/><path class="cls-70" d="M130.61,199.53a23.7,23.7,0,0,0,3.75-5.78c1.54-1.44.63-2.58-.58-3.45s-2.33-.25-3.09.76a7.44,7.44,0,0,0-1.29,7.11C129.53,198.87,129.55,199.67,130.61,199.53Z"/><path class="cls-71" d="M125.05,215.12c1.71-3.2,1.59-7.31,4.73-9.81l.3-.88-.48-.44a2,2,0,0,0-2.77.88c-1.56,3.25-4.26,6-4.57,9.8C123,215.91,124,215.88,125.05,215.12Z"/><path class="cls-72" d="M56.49,209.58c-.24-3-3.22-4-4.38-6.5A8.65,8.65,0,0,1,46,207c0,.28,0,.55,0,.83l1.64.72c1.63,1.52,4.22-1.54,5.59,1.21a2.18,2.18,0,0,0,.89.58Z"/><path class="cls-73" d="M53.14,190.77c-4.22-2.46-4.38-2.38-5.66,2.83.78.63.85-.1,1.06-.57.41-.94,1-1.75,2.13-1.33,1.28.49.66,1.55.47,2.45-.11.53-.15,1.07-.22,1.61,1.11-.65.94-2.39,2.34-2.79C54.42,192.17,53.36,191.49,53.14,190.77Z"/><path class="cls-22" d="M47.64,210.9a13.16,13.16,0,0,0-1.93,1.95,1.75,1.75,0,0,0,.65,2.44c1.13.78,1.57-.32,2.07-1.07.82-1.22,2.14-1.66,3.36-2.26a.73.73,0,0,0,.56-.26c.16-1.71-1.16-1.77-2.25-2.1A3.07,3.07,0,0,0,47.64,210.9Z"/><path class="cls-74" d="M129.89,198.77l-.6.19c0,1.6-1.16,2.66-1.8,4-.33,2,1.8.53,2.15,1.58l.23,0,.21-.11c.17-1.63.35-3.27.53-4.9Z"/><path class="cls-75" d="M49.89,210.38l2.46,1.32a2.2,2.2,0,0,0,1.74-1.35l-.15-1.16C52.2,208.23,50.87,208.67,49.89,210.38Z"/><path class="cls-75" d="M51.79,212c-1.55.09-3.06.26-3.36,2.26a4.14,4.14,0,0,0,.7.06Z"/><path class="cls-76" d="M388.83,214.29c4.38-.36,2.52-3.42,2.42-5.73,1-1.91-.41-3.31-1-4.88s-1.88-2.64-1.63-4.42c3.66.21,4.67,1.41,5.15,5.51.31,2.62-1,5.38.69,7.87,1.22,2.25,1.38,5.42,4.84,5.72-.27-4.51.61-8.89,1.26-13.31,1.65-11.11-1.89-13.43-11.65-15.24a21,21,0,0,0-6.81,0c-2.79.41-3.19-.75-2.83-3.14,1.06-7.15,0-8.94-6.58-11.69-.59-.9-1.21-1.71-2.38-.79-3.36-.74-4.36,2.11-6,4a1.83,1.83,0,0,0-.83,2.49,2,2,0,0,0,.94.62,2.79,2.79,0,0,0,2.14-.54c.76-.49,1.06-1.43,1.82-1.87,1.37.57.48,1.2,0,1.72-.65.74-1.11,1.45-.27,2.34l.5.23c2.41,1.12,1.47,5,4.88,5.73,1.21.26,4-.41,3.95,1.52s-2.84,1.38-4.23,2.32a8.66,8.66,0,0,0-.7.65,29.72,29.72,0,0,1,12.09,19.32C385.2,215.6,387.46,213.74,388.83,214.29Z"/><path class="cls-7" d="M431.59,244.54c3.79-1.29,7.58-2.54,10-6.17.9-1.35,1.93-2.66,3.75-2.8,2.18,1.94,3.94.89,5.61-.82,2.73,1.67,1.32,4.28,1.18,6.75,3.64-.37,3.09-2.78,2.53-4.76-1-3.48-.22-6.73.74-10a3.06,3.06,0,0,1,2.36-2.51c1.54-.25,2.51.63,3.35,1.77,2.48,3.33,2.31,7.24,1.8,11-.34,2.49-.14,5.15-1.37,7.51-1,1.86.59,1.54,1.54,1.71,3,.24,5.63-1.51,8.56-1.84,2.16-.25,1.86-2.27,1.91-3.88a5.39,5.39,0,0,0-1.62-4.09h0c-2.41-4.93-4.55-10-8.65-13.89-4.33-3.22-7.61-2.48-12.1,2.71a6.8,6.8,0,0,1-3.11,3,33.51,33.51,0,0,0-4.24,3.15c-.72.38-1.44,1.18-2.12-.06a.67.67,0,0,0-.44-.59l-.76,0c-.85-1.24-1.91-1.63-3.26-.82h0c-.89.94-2.18,1.07-3.25,1.64-1.81.35-3.35,1-3.2,3.28.79.76,1.81,1.93.68,2.66C427.44,240,429.83,242.2,431.59,244.54Z"/><path class="cls-76" d="M450.13,209.39a16.5,16.5,0,0,0-6.43.82,8.82,8.82,0,0,0-4.85,4.08c0,1.64,0,3.27,0,4.91.85,1.86,2.53,2.19,4.24,2.14a15,15,0,0,1,5.67,1.14c3.48-.21,7.33.31,8.39-4.51C456.41,213.76,454.31,210.7,450.13,209.39Z"/><path class="cls-76" d="M494.51,192.2l.81,1.64c.53,0,1.06,0,1.59,0,6.45.24,6.45.24,6.47-6.58,0-.54,0-1.08,0-1.61a4.93,4.93,0,0,0-4-4.09c-1.9-1.13-4-1.25-6.15-1.41-1.05-.07-2.23.08-2.1,1.7.19,1.84,2.88,2.54,2.17,4.81C493.65,188.52,494.13,190.35,494.51,192.2Z"/><path class="cls-77" d="M476.77,199.56q-1.62-2.85-3.23-5.72c-3.16,1.52-2.35,4.06-1.64,6.57a20.17,20.17,0,0,0,6.46,9.8c.77.13,1.82.65,2.26.32.92-.67.12-1.7-.21-2.5C479.24,205.19,478,202.38,476.77,199.56Z"/><path class="cls-78" d="M448.53,221.65a3.15,3.15,0,0,0-4.25-1.82,7,7,0,0,1-5.44-.63c0,.54,0,1.08,0,1.62,2.12,1,2.4,3.24,3.08,5,1.3,3.4,3,5.16,6.61,3.19a4.07,4.07,0,0,0,3.21-2.46C451.82,224.15,452,221.66,448.53,221.65Z"/><path class="cls-79" d="M494.51,192.2c.34-1.9-.72-3.81,0-5.71-.42-1.61-2.91-2-2.43-4.1-.47-1.36.24-1.74,1.38-1.62,2,.22,3.94.52,5.91.79-5.58-3.55-8.33-3-11.33,2.45a3,3,0,0,0,1.75,2.54A8.64,8.64,0,0,1,494.51,192.2Z"/><path class="cls-80" d="M448.54,229c.64-1.89-.48-1.6-1.32-.92-2.47,2-3.1.63-4.14-1.65-.95-2.08-.5-5.59-4.23-5.63a33.62,33.62,0,0,0,3.64,7.42c.88,1.43.9,2.52-1.24,2.42v.8c.63,2.17,2,1.19,3.24.79Z"/><path class="cls-81" d="M460.64,181.57c1.8-.33,2.14-1.78,2.41-3.27a18.67,18.67,0,0,1-8.88-4.89c-.25,1.37-1.53,1.71-2.41,2.44C454.73,177.73,458.66,178.1,460.64,181.57Z"/><path class="cls-50" d="M463.08,223.28c3.23,2.24,3.85,6.27,6.11,9.19,1,1.26,1.82,2.61,2.72,3.91a25.93,25.93,0,0,0-8.85-14.74l-.35.33A1.24,1.24,0,0,0,463.08,223.28Z"/><path class="cls-82" d="M451.76,175.85c1.71.11,3.22,0,2.41-2.44-1.21-.71-2.22-1.86-3.81-1.7h-.49a1.65,1.65,0,0,0-1.05,1,1.5,1.5,0,0,0,.28,1.4Z"/><path class="cls-50" d="M450.13,209.39a12.93,12.93,0,0,1,6.47,8.16l.41.28.41-.28C456.53,212.3,454.28,209.78,450.13,209.39Z"/><path class="cls-83" d="M446.12,169.22l-3.08-1c-.86-.19-1.11.21-1,1,1,1.25,3.72,2.12.87,4.18-.17,1.74,1.15,1,1.88,1.14a1.68,1.68,0,0,0,.95-.51c.41-1.59.47-3.27,1.28-4.74A.7.7,0,0,0,446.12,169.22Z"/><path class="cls-50" d="M463.06,221.64c-1.16-2.38-4.27-2-5.64-4.09l0,0c-1.73,3.43-1.72,3.55,1.79,3.62,1.32,0,2.53.65,3.85.48Z"/><path class="cls-84" d="M446.12,169.22a5.29,5.29,0,0,0,.8.09c.92,1,1.15,2.9,3.16,2.41h.28c-.26-1.68,0-3.09-2.43-4.1C444.93,166.36,446.89,169,446.12,169.22Z"/><path class="cls-85" d="M467.11,195.46c.61,0,1.72,0,1.63-.53-.29-1.77-1.83-1.86-3.27-1.91C464.76,194.71,466.83,194.47,467.11,195.46Z"/><path class="cls-78" d="M438.85,214.29l4.85-4.08C441,210.25,439.47,211.71,438.85,214.29Z"/><path class="cls-50" d="M471.91,236.38l1.62,4.09h.81C473.82,238.93,474.07,236.92,471.91,236.38Z"/><path class="cls-86" d="M411.43,243.74c0,1.15-.21,2.36.79,3.27q-.14-2.61,2.43-2.46C413.76,243.53,412.56,243.77,411.43,243.74Z"/><path class="cls-83" d="M449.1,174.09l.47-1.43c-2-1.27-3,.44-4.22,1.5l-.13.14q-.39.28-.21.45a.47.47,0,0,0,.32.14A3.67,3.67,0,0,0,449.1,174.09Z"/><path class="cls-50" d="M474.34,240.47c0,1.38.24,2.6,1.62,3.26C476,242.34,475.72,241.12,474.34,240.47Z"/><path class="cls-87" d="M445.33,174.89a2,2,0,0,0-.11-.59c-.83-.09-1.71,0-2.27-.85-.56.42-2.32.67-.34,1.5C443.38,175.27,444.42,174.93,445.33,174.89Z"/><path class="cls-88" d="M442.08,169.27l1-1c-.69-.63-1.6-1.49-2.29-.54C440.3,168.34,441.26,169.05,442.08,169.27Z"/><path class="cls-89" d="M434,231.45c1.39.07,2.6-.22,3.25-1.64A4.84,4.84,0,0,0,434,231.45Z"/><path class="cls-89" d="M437.23,229.82l3.26.82C439.83,228.6,438.67,228.64,437.23,229.82Z"/><path class="cls-90" d="M10.39,231.77c-1.7-2.21-2.57-5-4.8-6.84C6.77,227.51,6,231.48,10.39,231.77Z"/><path class="cls-11" d="M8.89,241.26c1.78-2.76,3.47-5.54,1.61-9C11.32,235.53,8.71,238.14,8.89,241.26Z"/><path class="cls-91" d="M24.31,210.16c-.68-1.22,1.91-3.12-.46-3.76-1.92-.52-4.05-.28-4.72,2.45a14,14,0,0,1-1.44,2.87c-.31.45-.69.85-1,1.31a6.8,6.8,0,0,0-1,3.14,8.56,8.56,0,0,0-.42,1.58c-.11,1.2.27,2.5-.74,3.51-.91,1.94-1.71,3.88-.33,5.94l1.14,1c1.26.46,1.71-.55,2.32-1.3.23-2.6,3-3.6,3.65-6a68.92,68.92,0,0,1,3.13-8.48A2.9,2.9,0,0,0,24.31,210.16Z"/><path class="cls-92" d="M16.16,217.72l.7-1.07c-1.34-1.42-.47-2.28.75-3.05,0-.63.05-1.26.08-1.88-1.23.52-2.56-.72-3.77.19-.55,3.19-2.83,4-5.52,3.86-1.34-.09-2.46-.12-3.46.83l-.09,1c1,.93.9,2.74,2.41,3.31.35.42.52,1,1.13,1.17,2.68,0,3.95-3.16,6.68-3.08C15.58,218.68,15.76,218.1,16.16,217.72Z"/><path class="cls-93" d="M15.33,235.55l1-.07c1.78-.22,4.19.82,4.5-2.33a2.42,2.42,0,0,0-.44-1.06c-1.32-1.18-3.28-.26-4.63-1.41l-.53-.12C12.7,232.27,14.78,233.89,15.33,235.55Z"/><path class="cls-90" d="M11.29,227.38a7.42,7.42,0,0,0-2.23-3.47c-.47,2.07.59,3.33,2.22,4.3.28-.18.37-.37.28-.55S11.38,227.38,11.29,227.38Z"/><path class="cls-11" d="M11.33,241.39l1.8-4.07C11,238,11.3,239.75,11.33,241.39Z"/><path class="cls-93" d="M16.88,226.49l-1.55,1.7-.09,2.37.26.22c2.21-.51,2.52-1.95,1.86-3.87Z"/><path class="cls-93" d="M11.29,227.38c0,.27,0,.55,0,.83,1.31,1.14,2.08.77,2.43-.87C12.91,227.92,12.11,228.29,11.29,227.38Z"/><path class="cls-90" d="M9.12,224l-.83-2.06-1-1C7.25,222.3,7.47,223.58,9.12,224Z"/><path class="cls-94" d="M208.16,242.09l4.93.37c-1.18-1.74-3.64-1.46-3.35-3.63L207,236c-1-1-2-1.13-2.38.34-.74,3.16-2.63,2.23-4.53,1.58a3,3,0,0,0-.9,2.61C202.19,240.91,205.39,240.24,208.16,242.09Z"/><path class="cls-17" d="M284,224.14c1.06-.22,2.13-.68,3.18,0,.52-1.95,0-4.19,1.68-5.8-1.46.21-2.36-.68-3.21-1.67-.52,0-.65.51-.9.84l0,0c-.5,2.28-3.79,3.52-2.38,6.52Z"/><path class="cls-95" d="M199.17,240.52c1.26-.53,1.46-1.43.9-2.61a11.42,11.42,0,0,0-2.22-.7c-1-.11-2.3-.19-2.52,1.28-.27,1.71.95,2,2.25,2C198.11,240.54,198.64,240.52,199.17,240.52Z"/><path class="cls-96" d="M282.35,224c-.12-2.51,3-3.81,2.38-6.52-2.57,1.06-2.89,4-4.7,5.74Z"/><path class="cls-97" d="M364.09,180.74c-.26,3.37-3.48,4.35-5.18,6.55,2.5-.22,3.17,1,2.5,3.28,2.33,1.08,5.36.06,7.26,2.45a11.44,11.44,0,0,0,0-9.8h0a9.7,9.7,0,0,0-4-2.43A2.78,2.78,0,0,0,364.09,180.74Z"/><path class="cls-98" d="M350.13,237.21c-1.89-3.11-2.28.06-3.26.8-1.4,2.83-3.57,5.05-5.63,7.36-.69,1.09-1.75,2.18,0,3.26,2.68,1.52,3.32-.63,3.86-2.4C346.13,242.83,347.38,239.6,350.13,237.21Z"/><path class="cls-14" d="M318.61,211c0-3.73.8-7.65-2.37-10.66-1.66,3.69,0,7.14.78,10.65l0,0Z"/><path class="cls-18" d="M341.24,248.63c-.67-1.08-.1-2.17,0-3.26l-1.62.81C339.62,247.37,339.76,248.45,341.24,248.63Z"/><path class="cls-99" d="M112.25,223l-1-3c-1.76-1.55-3-3.65-5.8-3.89-6.92-.57-10.11,2-10.43,9.4-.15,3.51-.48,4.76-4.35,2.92a16.37,16.37,0,0,0-13.28-.19c-2,.8-3.81,2-4.15,4.53,2,.79,1.27,3.17,2.55,4.37l1.61.83a3.31,3.31,0,0,0,.77-1.85c.35-2.55.38-5,3.93-5.49,3.91-.56,7.25.07,9.79,3.12a24.23,24.23,0,0,0,2.46,2.6h1.5c1.3-.53,1.23-2.05,2.07-2.92.57-.89,1.54-1.47,1.94-2.5a4.5,4.5,0,0,0,.29-1.09c-1.24-5.19,2.45-6.47,6-7.82a2.48,2.48,0,0,1,1.73.23c.57.68.29,1.52.44,2.28a2.8,2.8,0,0,0,.43,1c.69.72,1.35,1.52,2.52,1.21C113.15,225.88,112.59,224.4,112.25,223Z"/><path class="cls-100" d="M75.83,237.16c-.1-1.9.84-4.43-2.55-4.37-.71,1.69-1.58,3.39.27,4.93Z"/><path class="cls-101" d="M62,227.26c1.06-.28,2.27-.27,3-1.74a4,4,0,0,0-3.8,1A1.33,1.33,0,0,0,62,227.26Z"/><path class="cls-102" d="M62,227.26l-.78-.76-2.43.18c-.72.26-.62.9-.68,1.47C59.59,228.52,60.74,227.56,62,227.26Z"/><path class="cls-103" d="M104.88,236.38c2.68,2.07,2.89,5.65,4.84,8.17,3-.06,2.6-3.14,3.94-4.68,0,2.4-2.62,4.53-.72,7.13l-1.22,2.84c4.65-2.16,3.84-7.1,6-10.2,2.78-2.09,3.38-5.09,3.4-8.34-.36-1.38-1.14-2.07-2.6-1.65-1.07.13-1.62,1.93-3,1-1.19-.31-2.13-1.43-3.51-1.12C110.27,232.44,107.1,233.91,104.88,236.38Z"/><path class="cls-104" d="M104.88,236.38c3.59-.82,6.9-2,7.26-6.5a1,1,0,0,0,.29-.67c0-.25,0-.37-.07-.37a2.43,2.43,0,0,0-1.3-1c-1.57-.31-1.13-2.17-2.16-2.9h0a2.62,2.62,0,0,0-2.23-.92c-1,.2-2,.59-3,.69-2.16.79-4.24,1.66-4.09,4.57a22.81,22.81,0,0,1,1,3.89c.18.56.45,1.07.63,1.62.39.89.65,1.95,2,1.6Z"/><path class="cls-105" d="M124.23,238c.68,1.83-1.7,4.73-.44,4.93,2.14.35,1.54-3.09,2.84-4.47,2.47-2.64,2.05-6.32,3.25-9.41a2.64,2.64,0,0,0-2.94-.89c-2.9.85-2.67,4.1-4.38,5.87C121.44,236.07,122.52,237.17,124.23,238Z"/><path class="cls-106" d="M126.67,229l3.21.06,1.65-.77a4,4,0,0,1-.34-1.13c0-4.94-.71-5.46-5.4-3.8-1.21,1.55-4,1.41-4.17,4.06a4.25,4.25,0,0,0,2.85,1.64A6.77,6.77,0,0,0,126.67,229Z"/><path class="cls-107" d="M124.23,238c.32-1.24-2.11-1.77-.81-3.26a1.18,1.18,0,0,0-.27-1.94c-1.31.34-1.57-1.76-2.94-1.32.08,3-2.37,5.21-2.44,8.16C120.64,242,122.8,241.49,124.23,238Z"/><path class="cls-108" d="M112.94,247c.88-2.56,1.76-5.11,2.63-7.68.3-.87.91-1.95-.18-2.55s-2,.31-2.65,1.22c-1.33,2-1.12,4.79-3,6.56C109.74,246.79,110.64,247.84,112.94,247Z"/><path class="cls-109" d="M120.2,253.55c2.41-1,4.72-2.14,5.65-4.91-1.1-.87-.84-3.27-2.78-3-1.76.24-2,2.3-2.12,3.52C120.79,250.65,118.85,251.86,120.2,253.55Z"/><path class="cls-103" d="M103.26,236.37c-.82-.73-.82-1.76-1-2.74a2.23,2.23,0,0,0-2.72.86,2.82,2.82,0,0,0-.31,1.21,1.74,1.74,0,0,0,.92,1.53l.65,1.59A2.42,2.42,0,0,0,103.26,236.37Z"/><path class="cls-110" d="M103.45,254.08a1.41,1.41,0,0,0,1.41,1.15c.51.07,1.11,0,1-.79a1.17,1.17,0,0,0-1.11-.95C104.17,253.43,103.67,253.45,103.45,254.08Z"/><path class="cls-111" d="M49.32,225.07c-1.1.29-1.72-.59-2.5-1.08a1.11,1.11,0,0,0,0,1.65A4.68,4.68,0,0,0,50,227.36C50,226.52,50.12,225.66,49.32,225.07Z"/><path class="cls-112" d="M40.29,216.68,42,218.21c1.09-1.31.55-2.58-.11-3.85l-1.71.74C40.24,215.63,40.26,216.15,40.29,216.68Z"/><path class="cls-113" d="M53.24,230c.85,0,1.31-.34,1.2-.88a1.72,1.72,0,0,0-.93-1.05c-.59-.26-1,.18-.89.78A4.17,4.17,0,0,0,53.24,230Z"/><path class="cls-22" d="M38.69,225.26c-.72,1.22-.08,1.93.46,3.08C39.59,227.11,39.75,226.29,38.69,225.26Z"/><path class="cls-114" d="M44.36,211c-.59-.22-1.22-.61-1.76,0-.18.19-.08.63-.11,1l1.87-.15C44.37,211.56,44.36,211.29,44.36,211Z"/><path class="cls-115" d="M305.73,220.05l-3.22-1.65a7.78,7.78,0,0,0-1.18-.06c-1.12.11-2.62-.54-3.18.83-.47,1.15.91,1.74,1.53,2.55l1.24,1.55C303.77,224.11,305.82,223.73,305.73,220.05Z"/><path class="cls-116" d="M305.73,220.05a4.77,4.77,0,0,1-4.81,3.22c3.71,3.48,4.82-.13,6.4-2.43Z"/><path class="cls-117" d="M450.93,234.75l-5.61.82c-3.42,3-1.24,4,1.6,4.88C452,240.31,452.25,239.91,450.93,234.75Z"/><path class="cls-100" d="M94.39,236.37c-1.49-1.57.19-4.35-2.92-5.69A18.37,18.37,0,0,0,78.38,230a2,2,0,0,0-1.53,2.45c.23,1.85.4,3.7.59,5.54a15.76,15.76,0,0,1,10.61-2C90.15,236.23,92.27,236.25,94.39,236.37Z"/><path class="cls-14" d="M98.48,238.23l-.87-.29-.82.63c.43.27.86.75,1.31.76C99,239.37,98.56,238.68,98.48,238.23Z"/><path class="cls-118" d="M394.46,212.64c.49-2.79,1.13-5.56.8-8.42-.24-2.17-.57-4.36-2.47-5.76s-4.53-2.3-6.3-.82c-1.45,1.21.64,3.05,1.37,4.52,1.07,2.17,2.26,4.27,3.39,6.4C393.33,209.1,391.45,212.85,394.46,212.64Z"/><path class="cls-119" d="M34.75,204.45c-.7-2.88-1.53-5.74-2.06-8.65-.66-3.63-2.23-5.3-5.91-3.49a89,89,0,0,0,4.58,14.75c.68-3.93-1.58-7.2-2.35-10.8-.21-1-1.3-2.24.06-2.79,1.58-.65,1.9,1,2.24,2.12C32.25,198.63,32.51,201.93,34.75,204.45Z"/><path class="cls-119" d="M38.68,201.21c1.39,3.14,2.39,6.22-.11,9.39-.8,1-1.32,1.09-2.15.26.5,2.36,1.21,2.88,2.94.68,1.49-1.89,1.45-4.29,2.59-6.24h0C40.84,204,40.63,201.87,38.68,201.21Z"/><path class="cls-61" d="M32.39,224.21c4.14-4.29,4.13-8.07,0-11.7l-.42.36c.56,3.49,1.1,7-.08,10.47A1,1,0,0,0,32.39,224.21Z"/><path class="cls-119" d="M36.47,210.94a19.46,19.46,0,0,0-1.74-6.53C35.07,206.65,33.53,209.41,36.47,210.94Z"/><path class="cls-119" d="M29,210.32H27.48A1.33,1.33,0,0,0,27.2,212c1,1.29,2.55,1,3.9,1.2a2.57,2.57,0,0,0,1.09-.46l.16-.21c0-.51-.07-1-.1-1.52C31.29,210.11,30,211,29,210.32Z"/><path class="cls-61" d="M31.5,224.19l-1.87,4.74c2.15-.83,2.41-2.8,2.76-4.72l-.25-.23C31.82,223.72,31.6,223.77,31.5,224.19Z"/><path class="cls-120" d="M42,205.3c1-.06,2,.1,2.57-1.17-1.49-.8-2.24-.26-2.58,1.16Z"/><path class="cls-119" d="M31.3,207c.11.77.21,1.54.32,2.31.1.44.18.9.78.9C33.55,208.59,32.8,207.66,31.3,207Z"/><path class="cls-73" d="M48.45,200.4l1.86-3.19c-1.7.36-2,1.93-2.72,3.17C47.87,200.85,48.15,200.85,48.45,200.4Z"/><path class="cls-121" d="M32.4,210.2l-.78-.9c-.59,1.14-1.73.78-2.66,1,.93,1.05,2.13.75,3.29.67A5.24,5.24,0,0,1,32.4,210.2Z"/><path class="cls-122" d="M48.45,200.4l-.86,0a5.94,5.94,0,0,0-.81,3.27Z"/><path class="cls-7" d="M31.47,230.64c-.89-.78-1.37-.39-1.53.61,0,.28.23.6.36.89.39-.49.77-1,1.16-1.49Z"/><path class="cls-96" d="M284.71,217.54l.9-.84c-.73-4.85-.73-4.85,4.79-4.85a1.8,1.8,0,0,0,2.46,0c-.11-1.6-1.81-.79-2.4-1.64-1.2.67-2.62,1.17-3.79.55-4.25-2.25-8.8-1-13.19-1.41a1.29,1.29,0,0,0-.26,1.12c.31,1,.1,1.85-.64,2.21,2.43,2.15,5.66,1.91,8.47,2.93C282.37,216.09,284,215.86,284.71,217.54Z"/><path class="cls-18" d="M302.52,205.29a2.22,2.22,0,0,1,0,2.47c-1.09,1.17-.48,3.11-1.81,4.17a3.16,3.16,0,0,0-.64.77c.68,2.31,2.59,1.37,4.07,1.59,5.81-.06,5.93-.17,4.84-4.91C309.62,205.52,307.35,204.08,302.52,205.29Z"/><path class="cls-123" d="M292.86,211.85H290.4c1.09,3.49,1.72,3.8,7.38,3.63C297.1,212.87,294,213.73,292.86,211.85Z"/><path class="cls-124" d="M300.85,212.68c3-.79,1.13-3.27,1.66-4.92l-1.7.89.06,1.53A2.22,2.22,0,0,0,300.85,212.68Z"/><path class="cls-125" d="M300.85,212.68c0-.83,0-1.67,0-2.5-.44.45-.87.9-1.31,1.34s-1.12.21-.86.84c.11.26.88.23,1.36.34l.39,0Z"/><path class="cls-126" d="M302.52,205.29c2.2,1.29,6.14-.25,6.45,4.09a6.48,6.48,0,0,0,8,1.61c2-3.72-.31-7.11-.78-10.65l-.92-1.55a19.07,19.07,0,0,0-8.24-.87C303.38,198.24,301.38,201.56,302.52,205.29Z"/><path class="cls-86" d="M412.22,247v1.61c.85-.67,2.29-.4,2.78-1.73C414,245.74,413.12,246.74,412.22,247Z"/><path class="cls-127" d="M23.42,211.79c1.56-.49,1.76,1.76,3.15,1.61l.39-.13a1.85,1.85,0,0,0,.47-.67,2.52,2.52,0,0,0,0-.82c0-.49,0-1,0-1.45l-3.17-.17Z"/><path class="cls-128" d="M120.21,231.48c.9.3.56,2.63,2.36,1.5a2,2,0,0,0,.8-1.45,6.48,6.48,0,0,0-1.53-4.13c1.51-1.16,4.12-1.22,4-4.05-1.18,0-2.23-.2-2.39-1.69-.67-1.22-1.42-2.3-3-2.07-1.07.25-1.15,1.41-1.81,2a2.66,2.66,0,0,0-.89,2.14,5.25,5.25,0,0,0-.27,1.63c1.37,1.52-.49,3.79,1.19,5.24C119.47,230.24,120.16,230.2,120.21,231.48Z"/><path class="cls-69" d="M118.55,221.63,120.2,220c2.1-1.34,2.21-3.55,2.41-5.72,1.39-2.71,2.83-5.4,4.15-8.15a2.75,2.75,0,0,1,2.88-1.64c-.23-1.22-1.75-.61-2.15-1.58C123.9,208.86,119.58,214.44,118.55,221.63Z"/><path class="cls-129" d="M117.8,225.73c0-.65-.09-1.31-.14-2-.58,1.14-1.2,2.26-1.71,3.43-.64,1.49-1.49,2-2.9.93-.8-.26-1,.11-1,.87l.06.88c1.09.48,1.88,1.59,3.21,1.56C117.49,230.12,119,228.54,117.8,225.73Z"/><path class="cls-130" d="M112.25,223c-.13,1.41-.21,2.85-1.74,3.56a.86.86,0,0,0,.16,1.13,2,2,0,0,0,2.31-.27C114.5,225.63,113.09,224.35,112.25,223Z"/><path class="cls-131" d="M113,227.4l-2.45,0a1.14,1.14,0,0,0-.08,1.59l1.63,0,1-.87C113,227.89,113,227.65,113,227.4Z"/><path class="cls-132" d="M122.61,214.29A8.65,8.65,0,0,0,120.2,220l3.2,1.65c.39-2.22,2-4.12,1.65-6.54A2.85,2.85,0,0,1,122.61,214.29Z"/><path class="cls-16" d="M364.67,180.78c.54,2.15,2.5,1.89,4,2.43-.57-1.36.38-1.47,1.31-1.84a1.51,1.51,0,0,0,.54-2.63c-.63-.64-.71-3.25-2.65-1.26-.81.64.88,2.93-1.6,2.46Z"/><path class="cls-133" d="M366.26,179.94a2.75,2.75,0,0,0,3.37.42c.36-1.57-1.55-1.7-1.77-2.88C366.49,177.75,366.89,179.19,366.26,179.94Z"/><path class="cls-134" d="M463,221.67a5.53,5.53,0,0,0-3.35-.82c-2.84.37-3-1.16-2.29-3.28l-.79,0c-1.41,4-5.19,3.11-8.07,4.1,2.86.43,1.35,3.81,3.22,4.91,4.17-5.24,6.81-6,11.33-3.28C463.06,222.74,463,222.2,463,221.67Z"/><path class="cls-135" d="M440.23,235.64c-.44-.27-.69-.54-.86-.5-1.8.44-3.74.63-4.85,2.43-.11.17.27.94.4.94A6.43,6.43,0,0,0,440.23,235.64Z"/><path class="cls-89" d="M444.49,232.25c-1.14,0-2.34.23-3.24-.79-.87.1-1.84-.23-2.76.85C440.6,233.44,442.52,233.58,444.49,232.25Z"/><path class="cls-136" d="M441,216.21c0,1,.6,1.29,1.3,1.29,1,0,2.32.39,2.67-1.07.19-.79-.52-1.16-1.25-1.24C442.59,215.07,441.56,215.19,441,216.21Z"/><path class="cls-137" d="M492.09,182.39c-1.84,2.64-1.52,3.18,2.43,4.1C496.31,183.54,493.47,183.41,492.09,182.39Z"/><path class="cls-138" d="M445.35,174.16c1.7.35,2.81-1,4.22-1.5l.51-.94c-.85-1.08-1.22-2.81-3.16-2.41C444.5,170.3,445.29,172.35,445.35,174.16Z"/><path class="cls-93" d="M21.07,222.35c.32-.86,1.59-2.17-.81-1.69-1,2-4.12,2.78-3.38,5.83l.27.23c1.92,0,2.41-2,3.72-2.86C21.12,223.39,21.44,222.92,21.07,222.35Z"/><path class="cls-93" d="M15.31,218.37c0,1.09.07,2.18.1,3.28,2.71-.83.63-2.6.75-3.93Z"/><path class="cls-139" d="M20.09,223.37a10.8,10.8,0,0,1,0,8.72l.15,1.09c3.34-3.64,3.52-6.07.81-10.83Z"/><path class="cls-140" d="M272.58,212.68c3.7-.17,1-2.1.9-3.33-.86-1-1.69-2-2.6-3-.54-.57-1.68-1.25-1.91-.3-1.06,4.4-3.69,2.26-6,1.67-1.41-.23,1.6,2.08-.76,1.36a3.49,3.49,0,0,0-3.31.78,1.16,1.16,0,0,0-.1,1.07C263.4,211.6,268.3,209.59,272.58,212.68Z"/><path class="cls-141" d="M258.91,207.82l.07-.92c-.29-2.05-1.81-1.75-3.2-1.72v.06a3.32,3.32,0,0,0-3.13-.44c-.79,1.18-3.21.86-2.81,3.14l.09,0c2.06-.34,2.12,2.07,3.53,2.63,1.54-.54,1.73,1.85,3.17,1.5v0C257.88,210.88,259.05,209.71,258.91,207.82Z"/><path class="cls-142" d="M259.09,210.19h5.71L263,207.75c-1.33-.29-2.77-1.24-3.77.61C258.36,208.91,258.46,209.53,259.09,210.19Z"/><path class="cls-143" d="M249.84,207.94l2.75-2.59-.22-.35a.57.57,0,0,0-.71.18l-4.88.89c-.41.87.23,1.19.79,1.56Z"/><path class="cls-144" d="M253.32,210.16c-.36-1.94-1.31-3-3.39-2.25.31.91,1.95.67,1.59,2.36-.59,2.69,1,1,1.79.71C253.84,210.71,253.84,210.44,253.32,210.16Z"/><path class="cls-145" d="M255.78,205.18c.78,1.12,2.51.43,3.2,1.72.14-1.59-.66-2.81-1.47-4.11C256.15,203.06,257,204.89,255.78,205.18Z"/><path class="cls-145" d="M253.32,210.16c0,.27,0,.55,0,.82,1.33-.36.76,5.38,3.32,1.06C255.74,211,254.91,209.91,253.32,210.16Z"/><path class="cls-144" d="M252.59,205.35l3.19-.11-2.29-1.81c-1.39,0-1.54.74-1.06,1.85Z"/><path class="cls-145" d="M259.09,210.19c0-.61.09-1.22.13-1.83-.11-.18-.21-.36-.31-.54L256.64,212l2.17-1Z"/><path class="cls-146" d="M252.43,205.28l1.06-1.85c-.42-.27-1-.86-1.24-.75-1.15.52-.16,1.71-.59,2.5A1.84,1.84,0,0,0,252.43,205.28Z"/><path class="cls-147" d="M247.57,207.63l-.79-1.56c-.62,0-1.75-.12-1.58.48C245.44,207.43,246.6,207.63,247.57,207.63Z"/><path class="cls-148" d="M106.49,224.93h2.41c1-1.36,1.85-2.72,0-4.09-.82.91-1.62.09-2.44,0-2.33.43-4.32,1.89-6.76,2.11-1.12.1-1.3,1.51-1.15,2.65.2,1.42.39,2.83.59,4.25.33.31.61.26.87-.1-.06-2.81,2.79-2.58,4.06-4A1.75,1.75,0,0,1,106.49,224.93Z"/><path class="cls-148" d="M110.45,229c0-.53.06-1.06.08-1.59,0-.29,0-.59,0-.89a1.64,1.64,0,0,0-1.61-1.62C109.13,226.4,108.19,228.33,110.45,229Z"/><path class="cls-149" d="M99.3,230.83c1.38.08,1.46,1.59,2.37,2.19a3.25,3.25,0,0,0-1.66-3.29l-.87.1C99.19,230.16,99.25,230.5,99.3,230.83Z"/><path class="cls-150" d="M106.46,220.82c.81.48,1.61,2.38,2.44,0C108.09,220.93,107.28,220.1,106.46,220.82Z"/><path class="cls-151" d="M117.8,225.73c0,2.26-2,3.64-2.45,5.71,2.13,4.09,2-1,3.23-.8-.1-1.28.62-2.26,1.06-3.37C120.37,225.39,119.31,225.16,117.8,225.73Z"/><path class="cls-152" d="M106.49,224.93c-.18-1-.63-1.76-1.79-1.39s-1,1.3-.63,2.19A2.73,2.73,0,0,0,106.49,224.93Z"/><path class="cls-153" d="M122.59,231.55c0,.47,0,.95,0,1.43.28.58.56,1.17.85,1.76,2.25-1.24,1.4-4.28,3.25-5.75l-1.52-.78C123.38,228.6,123.35,230.36,122.59,231.55Z"/><path class="cls-154" d="M46.83,225.64c0-.55,0-1.1,0-1.65.32-3.27-2.9-1.82-4-3.13a3,3,0,0,1-.14.79c.06.26.1.52.14.78.66.77.73,2,1.89,2.4Z"/><path class="cls-121" d="M26.66,212.7l4.87-.14c-1.16-1.27-2.73-.39-4.06-.78Z"/><path class="cls-155" d="M304.36,202.44a2,2,0,0,0,2.16,2c1,.07,2.08.08,2.17-1.18s-.92-1.85-2.11-1.95C305.62,201.2,304.67,201.23,304.36,202.44Z"/><path class="cls-156" d="M202,85l.17-.85q1.77-8.74,3.53-17.47c.19-1,.19-1-.79-1.17-.63-.13-1.26-.23-1.87-.4a1,1,0,0,0-1.1.37c-1.86,2.08-3.76,4.14-5.62,6.23a2.08,2.08,0,0,1-2.21.71c-1.23-.29-2.48-.52-3.82-.8l3.49-8.42-2.23-.47c-.95-.2-1.17-.53-1-1.51.11-.56.22-1.13.34-1.68.2-.88.55-1.12,1.4-1s1.47.3,2.25.46l.44-2.18-2.19-.45c-.91-.2-1.14-.55-1-1.45.12-.64.24-1.27.38-1.9a.93.93,0,0,1,1.24-.82c.78.14,1.55.32,2.43.5l0-9.14a31.14,31.14,0,0,0,3.22.65,2.81,2.81,0,0,1,2.6,2.29c.76,2.48,1.69,4.91,2.52,7.36a1,1,0,0,0,.87.77c.75.12,1.49.28,2.22.46.47.12.69,0,.77-.5.12-.78.3-1.55.46-2.32q1.56-7.76,3.13-15.5l.17-.86,1.7.36,4,.83c.76.16,1.06.51,1,1.07s-.52.75-1.28.63c-.15,0-.31,0-.56-.07,0,.25,0,.46.07.66q1.58,8.82,3.13,17.66a.84.84,0,0,0,.79.81c1.25.23,2.48.53,3.73.76a1.71,1.71,0,0,1,1.53,1.62c0,.46.26.59.65.66,1.39.27,2.76.62,4.15.84a22.62,22.62,0,0,1,6.79,2.3c2.92,1.5,5.85,3,8.93,4.53a3.67,3.67,0,0,1-.52.13c-4.44.22-8.87.56-13.31.57a30.57,30.57,0,0,1-5.81-1.08,8.15,8.15,0,0,1-.83-.17c-.78-.23-1.47-.42-2,.58a1.35,1.35,0,0,1-1.58.5c-1.31-.28-2.63-.53-3.94-.82a.7.7,0,0,0-.88.33q-4.95,7.66-9.93,15.3a3.14,3.14,0,0,0-.19.4c.31.08.57.14.83.22a.81.81,0,0,1,.64,1,.77.77,0,0,1-.95.65C206,85.85,204,85.43,202,85Z"/><path class="cls-1" d="M337.12,73.52C279.74,71.87,229.58,39.65,190.48,0H176.67C221,39.79,276,75.25,338,75.25,336.24,75.25,338,74.38,337.12,73.52Z"/><path class="cls-7" d="M339.69,77c-.72-.09-1.43-.19-2.15-.25-.33,0-.55-.18-.59-.45a3.81,3.81,0,0,1-.06-1.21.83.83,0,0,1,.89-.71,8,8,0,0,0,1.73-.29l-3.82-.43c-.52-.06-1-.13-1.56-.18a.9.9,0,0,1-.78-.36c-.08-.14-.42-.12-.61-.22a2.73,2.73,0,0,1-.47-.35,1.87,1.87,0,0,1,.48-.33c.3-.11.68-.05.85-.41,0-.07.25-.08.38-.09l5.32-.35a.54.54,0,0,0,.28-.09c-.62-.11-1.23-.24-1.86-.33a.66.66,0,0,1-.63-.48,3.42,3.42,0,0,1-.12-1c.07-.67.31-.83,1-.88a14,14,0,0,0,1.9-.21c-.7-.27-1.39-.55-2.09-.8a.54.54,0,0,1-.41-.49c-.19-1.55-.39-3.09-.6-4.63a.41.41,0,0,1,.24-.49c.68-.36,1.35-.75,2.15-1.2a2,2,0,0,0,.25.37c1.69,1.75,3.39,3.49,5.09,5.24a.76.76,0,0,1,.09.09,2.73,2.73,0,0,0,2.6,1c-1.18-4.07-2.37-8.15-3.57-12.28,2.87.11,5.66.08,8.44.33v.18l-3.41-.09,2.23,2.46,9.15,10.06a.74.74,0,0,0,.69.33.71.71,0,0,1,.4.09,39.77,39.77,0,0,0,10,2.8c2.58.4,5.19.6,7.79.89a33.39,33.39,0,0,1,6.64,1.4,10.73,10.73,0,0,0,1.7.26s0,0,0,0a12.61,12.61,0,0,0-3.76.63,44.8,44.8,0,0,1-7.23.67A51.42,51.42,0,0,0,362,77.6a4.08,4.08,0,0,1-1.76.47c-.09,0-.21.1-.29.18L348.08,90.08l-.17.21,3.36.08v.13a5.28,5.28,0,0,1-.89.11l-7.33-.12-.23,0c1.38-4,2.76-8,4.15-12.1a3.14,3.14,0,0,0-2.35.62c-1.82,1.76-3.71,3.46-5.57,5.19l-.5.47c-.71-.44-1.4-.87-2.08-1.32a.42.42,0,0,1-.15-.34q.39-2.39.84-4.77a.66.66,0,0,1,.37-.36c.71-.26,1.44-.49,2.16-.73Z"/><use width="1" height="1" transform="translate(237.43 85.98) scale(0.81 0.82)" xlink:href="#New_Symbol_4"/><use width="1" height="1" transform="translate(226.98 86.21) scale(0.81 0.82)" xlink:href="#New_Symbol_4"/><use width="1" height="1" transform="translate(246.43 92.56) scale(0.81 0.82)" xlink:href="#New_Symbol_4"/><use width="1" height="1" transform="translate(274.73 86.8) scale(0.81 0.82)" xlink:href="#New_Symbol_4"/><use width="1" height="1" transform="translate(315.3 87.74) scale(0.81 0.82)" xlink:href="#New_Symbol_4"/><use width="1" height="1" transform="translate(297.74 100.93) scale(0.81 0.82)" xlink:href="#New_Symbol_4"/><use width="1" height="1" transform="translate(228.88 41.2) scale(0.81 0.82)" xlink:href="#New_Symbol_4"/><use width="1" height="1" transform="translate(237.63 48.64) scale(0.81 0.82)" xlink:href="#New_Symbol_4"/><use width="1" height="1" transform="translate(248.96 42.01) scale(0.81 0.82)" xlink:href="#New_Symbol_4"/><use width="1" height="1" transform="translate(280.41 42.59) scale(0.81 0.82)" xlink:href="#New_Symbol_4"/><use width="1" height="1" transform="translate(309.68 36.05) scale(0.81 0.82)" xlink:href="#New_Symbol_4"/><use width="1" height="1" transform="translate(317.35 49) scale(0.81 0.82)" xlink:href="#New_Symbol_4"/><use width="1" height="1" transform="translate(357.08 43.73) scale(0.81 0.82)" xlink:href="#New_Symbol_4"/><use width="1" height="1" transform="translate(248.76 29.88) scale(0.81 0.82)" xlink:href="#New_Symbol_4"/><use width="1" height="1" transform="translate(214.59 82.11) scale(0.81 0.82)" xlink:href="#New_Symbol_4"/><use width="1" height="1" transform="translate(222.22 87.7) scale(0.81 0.82)" xlink:href="#New_Symbol_4"/><use width="1" height="1" transform="translate(221.66 80.16) scale(0.81 0.82)" xlink:href="#New_Symbol_4"/><use width="1" height="1" transform="translate(220.62 38.16) scale(0.81 0.82)" xlink:href="#New_Symbol_4"/><use width="1" height="1" transform="translate(386.55 85.51) scale(0.81 0.82)" xlink:href="#New_Symbol_4"/><use width="1" height="1" transform="translate(367.84 108.69) scale(0.81 0.82)" xlink:href="#New_Symbol_4"/></svg>