<svg id="Layer_1" data-name="Layer 1" xmlns="http://www.w3.org/2000/svg" xmlns:xlink="http://www.w3.org/1999/xlink" viewBox="0 0 504.75 308.94"><defs><style>.cls-1{fill:none;}.cls-2{clip-path:url(#clip-path);}.cls-3{fill:#ced6ef;}.cls-4{fill:#cfd5f6;}.cls-5{fill:#97a4d3;}.cls-6{fill:#c3c9e5;}.cls-7{fill:#f2f7fe;}.cls-8{opacity:0.9;}.cls-12,.cls-13,.cls-14,.cls-9{fill:#fff;}.cls-10{fill:#c7ceea;}.cls-11{fill:#a6b3ed;opacity:0.47;}.cls-12{opacity:0.69;}.cls-13{opacity:0.52;}.cls-14{opacity:0.34;}.cls-15{fill:#ff5252;}</style><clipPath id="clip-path"><rect class="cls-1" x="-0.25" y="0.34" width="505" height="309"/></clipPath></defs><title>show_5</title><g class="cls-2"><path class="cls-3" d="M118.92,131.63C80.39,119.33,40.13,114.2,0,119.68V248.25c87.18-.27,174.37-3.87,261.56-3.68-23.14-14.6-44.66-30.11-64.55-49.8C171.57,171.09,151.19,142.15,118.92,131.63Z"/><path class="cls-4" d="M495.11,35.12c-21.23-13.58-47.55-2.54-67.09,8.5-14.43,7.64-27.17,17.83-31.41,34.81-5.1-13.58-11.89-26.32-26.33-31.42-11-3.39-22.08-1.7-32.27,2.55.85-10.19-6.79-17.83-15.28-19.53-11.89-3.4-22.93,5.09-29.72,14.44-5.95-22.08-34-28.88-51.8-19.54-14.44,7.65-30.57,17.84-29.73,36.52-21.22-12.74-42.45,7.64-51.8,25.47-6.79-6.79-17-11.88-26.32-5.94C130,64.85,124,45.31,106.19,42.77c-20.38-3.4-46.71,1.7-54.35,22.92A25.33,25.33,0,0,0,38.25,51.26C23.33,45,7.68,52.5,0,65.1v46.8c59.78-2.58,119.56-5.74,179.34-1.73,42.54,2.62,84.5,16.26,128.18,12.06,24.72-2.1,47.71-6.82,72.43-11,10.35-1.58,20.69-2.63,31-4.72,32.1-5,62.89-1.29,94.27.45V18.1A26,26,0,0,0,495.11,35.12Z"/><path class="cls-5" d="M38.25,51.26A25.33,25.33,0,0,1,51.84,65.69c7.64-21.22,34-26.32,54.35-22.92C124,45.31,130,64.85,133.36,81c9.34-5.94,19.53-.85,26.32,5.94,9.35-17.83,30.58-38.21,51.8-25.47-.84-18.68,15.29-28.87,29.73-36.52C259,15.59,287.06,22.39,293,44.47c6.79-9.35,17.83-17.84,29.72-14.44,8.49,1.7,16.13,9.34,15.28,19.53,10.19-4.25,21.23-5.94,32.27-2.55,14.44,5.1,21.23,17.84,26.33,31.42,4.24-17,17-27.17,31.41-34.81,19.54-11,45.86-22.08,67.09-8.5a26,26,0,0,1,10.19-17V-43H0V65.1C7.68,52.5,23.33,45,38.25,51.26Z"/><path class="cls-4" d="M426.55,149.76c-28.17,6-55.18,0-83.35,6a722.11,722.11,0,0,0-80.47,19.53c-5.75,1.7-11.5,2.55-17.25,5.09a18.24,18.24,0,0,1-5.74,1.7c-30.47,11-59.21,13.59-89.1,25.48-2.3.85-5.17,0-7.47,0h-1.51a303.26,303.26,0,0,0,35.43,37.18c20.88.06,41.76.59,62.65,1.88,33.91,2.55,68.4,7.64,102.31,4.25,17.82-2.55,35.64-7.65,53.46-11.89,9.77-1.7,19-2.55,28.74-5.1,27.51-8.86,54.15-11.3,81.05-13.46v-89.2c-22.52,5.05-44.48,11.75-67.25,16.05C434.6,148.06,430,148.91,426.55,149.76Z"/><path class="cls-6" d="M411,96.27c-10.35,3.39-20.69,5.09-31,7.64-24.72,6.79-47.71,14.43-72.43,17.83-43.68,6.79-85.64-15.28-128.18-19.53C119.6,95.73,59.82,100.84,0,105v18.74c27.14-5.3,54.39-.33,80.47,11.58,21.85,10.19,35.64,38.21,52.89,61.14,2.71,3.84,5.46,7.5,8.26,11h1.51c2.3,0,5.17.85,7.47,0,29.89-11.89,58.63-14.44,89.1-25.48a18.24,18.24,0,0,0,5.74-1.7c5.75-2.54,11.5-3.39,17.25-5.09a722.11,722.11,0,0,1,80.47-19.53c28.17-6,55.18,0,83.35-6,3.45-.85,8.05-1.7,11.5-2.54,22.77-4.3,44.73-11,67.25-16.05V97C473.92,94.19,443.13,88.11,411,96.27Z"/><path class="cls-7" d="M424.25,230.53c-9.77,1.92-19,2.56-28.74,3.84-17.82,3.21-35.64,7-53.46,9-33.91,2.56-68.4-1.28-102.31-3.21-20.89-1-41.77-1.37-62.65-1.42l1.14.78-1.14-.78c-59-.14-118,2.49-177,2.69v75.64H505.3V220.37C478.4,222,451.76,223.84,424.25,230.53Z"/><g class="cls-8"><polygon class="cls-9" points="415.98 219.79 415.83 219.03 399.75 206.49 415.13 215.51 411.9 199.35 399.75 188.45 410.83 193.97 406.9 174.26 402.33 170.09 406.47 172.11 401.34 146.37 395.56 141.1 400.8 143.65 399.06 134.93 395.88 132.4 398.9 134.13 395.07 114.95 393.04 125.15 394.43 124.35 392.97 125.51 388.51 147.87 393.14 145.61 388.03 150.26 385.2 164.47 392.17 161.07 384.48 168.08 376.98 205.68 388.95 199.72 375.82 211.5 374.17 219.79 391.82 219.79 391.82 241.7 398.26 241.7 398.26 219.79 415.98 219.79"/><polygon class="cls-10" points="395.07 241.7 398.26 241.7 398.26 219.79 415.98 219.79 415.83 219.03 399.75 206.49 415.13 215.51 411.9 199.35 399.75 188.45 410.83 193.97 406.9 174.26 402.33 170.09 406.47 172.11 401.34 146.37 395.56 141.1 400.8 143.65 399.06 134.93 395.88 132.4 398.9 134.13 395.07 114.95 395.07 241.7"/><rect class="cls-11" x="391.82" y="219.8" width="6.44" height="21.9"/></g><polygon class="cls-9" points="281.16 244.16 281.08 243.79 272.23 237.68 280.69 242.07 278.92 234.2 272.23 228.89 278.33 231.58 276.16 221.97 273.64 219.94 275.93 220.93 273.1 208.38 269.92 205.81 272.8 207.06 271.85 202.81 270.1 201.58 271.76 202.42 269.65 193.07 268.53 198.04 269.3 197.65 268.49 198.22 266.04 209.11 268.59 208.01 265.78 210.28 264.22 217.2 268.06 215.55 263.82 218.96 259.69 237.29 266.28 234.38 259.06 240.12 258.14 244.16 267.86 244.16 267.86 254.84 271.41 254.84 271.41 244.16 281.16 244.16"/><polygon class="cls-10" points="269.65 254.84 271.41 254.84 271.41 244.16 281.16 244.16 281.08 243.79 272.23 237.68 280.69 242.07 278.92 234.2 272.23 228.89 278.33 231.58 276.16 221.97 273.64 219.94 275.93 220.93 273.1 208.38 269.92 205.81 272.8 207.06 271.85 202.81 270.1 201.58 271.76 202.42 269.65 193.07 269.65 254.84"/><rect class="cls-11" x="267.86" y="244.16" width="3.55" height="10.67"/><polygon class="cls-12" points="281.16 244.16 281.08 243.79 272.23 237.68 280.69 242.07 278.92 234.2 272.23 228.89 278.33 231.58 276.16 221.97 273.64 219.94 275.93 220.93 273.1 208.38 269.92 205.81 272.8 207.06 271.85 202.81 270.1 201.58 271.76 202.42 269.65 193.07 268.53 198.04 269.3 197.65 268.49 198.22 266.04 209.11 268.59 208.01 265.78 210.28 264.22 217.2 268.06 215.55 263.82 218.96 259.69 237.29 266.28 234.38 259.06 240.12 258.14 244.16 267.86 244.16 267.86 254.84 271.41 254.84 271.41 244.16 281.16 244.16"/><polygon class="cls-9" points="325.88 239.72 325.8 239.43 317.66 234.66 325.44 238.09 323.81 231.95 317.66 227.8 323.27 229.9 321.28 222.41 318.97 220.82 321.06 221.59 318.47 211.81 315.54 209.81 318.19 210.78 317.31 207.46 315.71 206.5 317.23 207.16 315.3 199.87 314.27 203.74 314.97 203.44 314.23 203.88 311.98 212.38 314.32 211.52 311.73 213.29 310.3 218.69 313.83 217.4 309.93 220.06 306.14 234.35 312.2 232.09 305.55 236.56 304.72 239.72 313.65 239.72 313.65 248.04 316.91 248.04 316.91 239.72 325.88 239.72"/><polygon class="cls-10" points="315.3 248.04 316.91 248.04 316.91 239.72 325.88 239.72 325.8 239.43 317.66 234.66 325.44 238.09 323.81 231.95 317.66 227.8 323.27 229.9 321.28 222.41 318.97 220.82 321.06 221.59 318.47 211.81 315.54 209.81 318.19 210.78 317.31 207.46 315.71 206.5 317.23 207.16 315.3 199.87 315.3 248.04"/><rect class="cls-11" x="313.65" y="239.72" width="3.26" height="8.33"/><polygon class="cls-12" points="325.88 239.72 325.8 239.43 317.66 234.66 325.44 238.09 323.81 231.95 317.66 227.8 323.27 229.9 321.28 222.41 318.97 220.82 321.06 221.59 318.47 211.81 315.54 209.81 318.19 210.78 317.31 207.46 315.71 206.5 317.23 207.16 315.3 199.87 314.27 203.74 314.97 203.44 314.23 203.88 311.98 212.38 314.32 211.52 311.73 213.29 310.3 218.69 313.83 217.4 309.93 220.06 306.14 234.35 312.2 232.09 305.55 236.56 304.72 239.72 313.65 239.72 313.65 248.04 316.91 248.04 316.91 239.72 325.88 239.72"/><polygon class="cls-9" points="170.29 236.12 170.25 235.91 165.68 232.49 170.05 234.95 169.14 230.54 165.68 227.57 168.83 229.07 167.72 223.69 166.42 222.56 167.59 223.11 166.13 216.08 164.49 214.64 165.98 215.34 165.49 212.96 164.59 212.27 165.44 212.74 164.35 207.51 163.78 210.29 164.17 210.07 163.76 210.39 162.49 216.49 163.81 215.88 162.35 217.15 161.55 221.02 163.53 220.09 161.34 222.01 159.22 232.27 162.62 230.64 158.88 233.86 158.41 236.12 163.43 236.12 163.43 242.1 165.26 242.1 165.26 236.12 170.29 236.12"/><polygon class="cls-10" points="164.35 242.1 165.26 242.1 165.26 236.12 170.29 236.12 170.25 235.91 165.68 232.49 170.05 234.95 169.14 230.54 165.68 227.57 168.83 229.07 167.72 223.69 166.42 222.56 167.59 223.11 166.13 216.08 164.49 214.64 165.98 215.34 165.49 212.96 164.59 212.27 165.44 212.74 164.35 207.51 164.35 242.1"/><rect class="cls-11" x="163.43" y="236.12" width="1.83" height="5.98"/><polygon class="cls-12" points="170.29 236.12 170.25 235.91 165.68 232.49 170.05 234.95 169.14 230.54 165.68 227.57 168.83 229.07 167.72 223.69 166.42 222.56 167.59 223.11 166.13 216.08 164.49 214.64 165.98 215.34 165.49 212.96 164.59 212.27 165.44 212.74 164.35 207.51 163.78 210.29 164.17 210.07 163.76 210.39 162.49 216.49 163.81 215.88 162.35 217.15 161.55 221.02 163.53 220.09 161.34 222.01 159.22 232.27 162.62 230.64 158.88 233.86 158.41 236.12 163.43 236.12 163.43 242.1 165.26 242.1 165.26 236.12 170.29 236.12"/><polygon class="cls-9" points="160.09 231.87 160.01 231.51 152.19 225.65 159.67 229.86 158.1 222.31 152.19 217.22 157.58 219.8 155.67 210.59 153.45 208.64 155.46 209.59 152.97 197.56 150.16 195.1 152.7 196.29 151.86 192.22 150.31 191.04 151.78 191.84 149.92 182.88 148.93 187.65 149.6 187.27 148.9 187.82 146.73 198.26 148.98 197.21 146.49 199.38 145.12 206.02 148.51 204.43 144.77 207.71 141.12 225.27 146.94 222.49 140.56 227.99 139.75 231.87 148.34 231.87 148.34 242.1 151.47 242.1 151.47 231.87 160.09 231.87"/><polygon class="cls-10" points="149.92 242.1 151.47 242.1 151.47 231.87 160.09 231.87 160.01 231.51 152.19 225.65 159.67 229.86 158.1 222.31 152.19 217.22 157.58 219.8 155.67 210.59 153.45 208.64 155.46 209.59 152.97 197.56 150.16 195.1 152.7 196.29 151.86 192.22 150.31 191.04 151.78 191.84 149.92 182.88 149.92 242.1"/><rect class="cls-11" x="148.34" y="231.87" width="3.13" height="10.23"/><polygon class="cls-12" points="160.09 231.87 160.01 231.51 152.19 225.65 159.67 229.86 158.1 222.31 152.19 217.22 157.58 219.8 155.67 210.59 153.45 208.64 155.46 209.59 152.97 197.56 150.16 195.1 152.7 196.29 151.86 192.22 150.31 191.04 151.78 191.84 149.92 182.88 148.93 187.65 149.6 187.27 148.9 187.82 146.73 198.26 148.98 197.21 146.49 199.38 145.12 206.02 148.51 204.43 144.77 207.71 141.12 225.27 146.94 222.49 140.56 227.99 139.75 231.87 148.34 231.87 148.34 242.1 151.47 242.1 151.47 231.87 160.09 231.87"/><g class="cls-8"><polygon class="cls-9" points="381.32 235.47 381.17 234.8 365.5 223.94 380.49 231.76 377.35 217.76 365.5 208.32 376.3 213.1 372.47 196.03 368.01 192.42 372.05 194.17 367.05 171.88 361.42 167.32 366.52 169.53 364.82 161.97 361.73 159.78 364.67 161.28 360.94 144.67 358.96 153.5 360.31 152.81 358.89 153.81 354.54 173.18 359.05 171.22 354.07 175.25 351.31 187.56 358.11 184.61 350.61 190.69 343.3 223.25 354.97 218.09 342.17 228.28 340.56 235.47 357.77 235.47 357.77 254.44 364.05 254.44 364.05 235.47 381.32 235.47"/><polygon class="cls-10" points="360.94 254.44 364.05 254.44 364.05 235.47 381.32 235.47 381.17 234.8 365.5 223.94 380.49 231.76 377.35 217.76 365.5 208.32 376.3 213.1 372.47 196.03 368.01 192.42 372.05 194.17 367.05 171.88 361.42 167.32 366.52 169.53 364.82 161.97 361.73 159.78 364.67 161.28 360.94 144.67 360.94 254.44"/><rect class="cls-11" x="357.77" y="235.47" width="6.28" height="18.97"/><polygon class="cls-13" points="381.32 235.47 381.17 234.8 365.5 223.94 380.49 231.76 377.35 217.76 365.5 208.32 376.3 213.1 372.47 196.03 368.01 192.42 372.05 194.17 367.05 171.88 361.42 167.32 366.52 169.53 364.82 161.97 361.73 159.78 364.67 161.28 360.94 144.67 358.96 153.5 360.31 152.81 358.89 153.81 354.54 173.18 359.05 171.22 354.07 175.25 351.31 187.56 358.11 184.61 350.61 190.69 343.3 223.25 354.97 218.09 342.17 228.28 340.56 235.47 357.77 235.47 357.77 254.44 364.05 254.44 364.05 235.47 381.32 235.47"/></g><polygon class="cls-9" points="507.75 288.63 507.3 286.38 460.1 249.56 505.25 276.04 495.78 228.59 460.1 196.59 492.63 212.79 481.1 154.93 467.66 142.68 479.84 148.62 464.76 73.03 447.8 57.56 463.18 65.06 458.07 39.44 448.75 32.03 457.61 37.12 446.37 -19.22 440.4 10.72 444.48 8.38 440.19 11.79 427.1 77.43 440.69 70.8 425.7 84.47 417.38 126.19 437.85 116.2 415.26 136.8 393.25 247.19 428.4 229.69 389.85 264.26 384.99 288.63 436.82 288.63 436.82 352.94 455.74 352.94 455.74 288.63 507.75 288.63"/><polygon class="cls-10" points="446.37 352.94 455.74 352.94 455.74 288.63 507.75 288.63 507.3 286.38 460.1 249.56 505.25 276.04 495.78 228.59 460.1 196.59 492.63 212.79 481.1 154.93 467.66 142.68 479.84 148.62 464.76 73.03 447.8 57.56 463.18 65.06 458.07 39.44 448.75 32.03 457.61 37.12 446.37 -19.22 446.37 352.94"/><rect class="cls-11" x="436.82" y="288.63" width="18.92" height="64.31"/><polygon class="cls-9" points="150.34 231.8 150.1 230.59 124.76 210.83 149 225.05 143.92 199.57 124.76 182.4 142.23 191.09 136.03 160.03 128.82 153.46 135.36 156.64 127.27 116.06 118.16 107.76 126.42 111.79 123.67 98.03 118.67 94.06 123.42 96.79 117.39 66.54 114.19 82.62 116.38 81.36 114.07 83.19 107.05 118.43 114.34 114.87 106.29 122.21 101.83 144.6 112.82 139.24 100.69 150.3 88.88 209.56 107.74 200.17 87.05 218.72 84.44 231.8 112.27 231.8 112.27 266.32 122.42 266.32 122.42 231.8 150.34 231.8"/><polygon class="cls-10" points="117.39 266.32 122.42 266.32 122.42 231.8 150.34 231.8 150.1 230.59 124.76 210.83 149 225.05 143.92 199.57 124.76 182.4 142.23 191.09 136.03 160.03 128.82 153.46 135.36 156.64 127.27 116.06 118.16 107.76 126.42 111.79 123.67 98.03 118.67 94.06 123.42 96.79 117.39 66.54 117.39 266.32"/><rect class="cls-11" x="112.27" y="231.8" width="10.15" height="34.52"/><polygon class="cls-9" points="79.86 237.43 79.66 236.33 58.44 218.33 78.73 231.28 74.48 208.08 58.44 192.44 73.06 200.35 67.88 172.06 61.84 166.08 67.31 168.98 60.53 132.03 52.91 124.47 59.82 128.13 57.52 115.6 53.33 111.98 57.31 114.47 52.26 86.92 49.58 101.56 51.41 100.42 49.48 102.09 43.6 134.18 49.71 130.94 42.97 137.62 39.23 158.01 48.43 153.13 38.28 163.2 28.38 217.17 44.18 208.62 26.85 225.52 24.66 237.43 47.97 237.43 47.97 268.87 56.47 268.87 56.47 237.43 79.86 237.43"/><polygon class="cls-10" points="52.26 268.87 56.47 268.87 56.47 237.43 79.86 237.43 79.66 236.33 58.44 218.33 78.73 231.28 74.48 208.08 58.44 192.44 73.06 200.35 67.88 172.06 61.84 166.08 67.31 168.98 60.53 132.03 52.91 124.47 59.82 128.13 57.52 115.6 53.33 111.98 57.31 114.47 52.26 86.92 52.26 268.87"/><rect class="cls-11" x="47.97" y="237.43" width="8.5" height="31.44"/><polygon class="cls-14" points="79.86 237.43 79.66 236.33 58.44 218.33 78.73 231.28 74.48 208.08 58.44 192.44 73.06 200.35 67.88 172.06 61.84 166.08 67.31 168.98 60.53 132.03 52.91 124.47 59.82 128.13 57.52 115.6 53.33 111.98 57.31 114.47 52.26 86.92 49.58 101.56 51.41 100.42 49.48 102.09 43.6 134.18 49.71 130.94 42.97 137.62 39.23 158.01 48.43 153.13 38.28 163.2 28.38 217.17 44.18 208.62 26.85 225.52 24.66 237.43 47.97 237.43 47.97 268.87 56.47 268.87 56.47 237.43 79.86 237.43"/><polygon class="cls-9" points="44.2 243.65 43.99 242.67 22.77 226.77 43.07 238.21 38.81 217.72 22.77 203.9 37.4 210.9 32.21 185.91 26.17 180.62 31.64 183.19 24.87 150.54 17.24 143.86 24.15 147.1 21.86 136.03 17.67 132.83 21.65 135.03 16.6 110.7 13.91 123.63 15.74 122.62 13.82 124.09 7.93 152.44 14.04 149.58 7.3 155.48 3.56 173.5 12.77 169.18 2.61 178.08 -7.29 225.75 8.52 218.2 -8.82 233.12 -11 243.65 12.3 243.65 12.3 271.42 20.81 271.42 20.81 243.65 44.2 243.65"/><polygon class="cls-10" points="16.6 271.42 20.81 271.42 20.81 243.65 44.2 243.65 43.99 242.67 22.77 226.77 43.07 238.21 38.81 217.72 22.77 203.9 37.4 210.9 32.21 185.91 26.17 180.62 31.64 183.19 24.87 150.54 17.24 143.86 24.15 147.1 21.86 136.03 17.67 132.83 21.65 135.03 16.6 110.7 16.6 271.42"/><rect class="cls-11" x="12.3" y="243.65" width="8.5" height="27.77"/><polygon class="cls-12" points="44.2 243.65 43.99 242.67 22.77 226.77 43.07 238.21 38.81 217.72 22.77 203.9 37.4 210.9 32.21 185.91 26.17 180.62 31.64 183.19 24.87 150.54 17.24 143.86 24.15 147.1 21.86 136.03 17.67 132.83 21.65 135.03 16.6 110.7 13.91 123.63 15.74 122.62 13.82 124.09 7.93 152.44 14.04 149.58 7.3 155.48 3.56 173.5 12.77 169.18 2.61 178.08 -7.29 225.75 8.52 218.2 -8.82 233.12 -11 243.65 12.3 243.65 12.3 271.42 20.81 271.42 20.81 243.65 44.2 243.65"/><polygon class="cls-9" points="129.96 276.22 129.65 274.65 96.67 248.93 128.21 267.43 121.6 234.28 96.67 211.92 119.4 223.24 111.34 182.82 101.95 174.26 110.46 178.41 99.93 125.6 88.08 114.79 98.82 120.03 95.25 102.13 88.74 96.95 94.93 100.51 87.08 61.15 82.91 82.07 85.75 80.43 82.76 82.81 73.62 128.68 83.11 124.04 72.64 133.59 66.82 162.74 81.13 155.76 65.35 170.15 49.97 247.28 74.52 235.05 47.59 259.2 44.2 276.22 80.41 276.22 80.41 321.15 93.62 321.15 93.62 276.22 129.96 276.22"/><polygon class="cls-10" points="87.08 321.15 93.62 321.15 93.62 276.22 129.96 276.22 129.65 274.65 96.67 248.93 128.21 267.43 121.6 234.28 96.67 211.92 119.4 223.24 111.34 182.82 101.95 174.26 110.46 178.41 99.93 125.6 88.08 114.79 98.82 120.03 95.25 102.13 88.74 96.95 94.93 100.51 87.08 61.15 87.08 321.15"/><rect class="cls-11" x="80.41" y="276.22" width="13.22" height="44.93"/><polygon class="cls-13" points="129.96 276.22 129.65 274.65 96.67 248.93 128.21 267.43 121.6 234.28 96.67 211.92 119.4 223.24 111.34 182.82 101.95 174.26 110.46 178.41 99.93 125.6 88.08 114.79 98.82 120.03 95.25 102.13 88.74 96.95 94.93 100.51 87.08 61.15 82.91 82.07 85.75 80.43 82.76 82.81 73.62 128.68 83.11 124.04 72.64 133.59 66.82 162.74 81.13 155.76 65.35 170.15 49.97 247.28 74.52 235.05 47.59 259.2 44.2 276.22 80.41 276.22 80.41 321.15 93.62 321.15 93.62 276.22 129.96 276.22"/><path class="cls-15" d="M240.44,238.52a8.61,8.61,0,0,1-.27-1.75,9.33,9.33,0,0,0-1-3.29h0c-.06-.13-.17-.29-.22-.4s-.16-.39-.23-.58a4.82,4.82,0,0,0-.54-1.09.16.16,0,0,0-.1-.08c-.1,0-.14.13-.14.23a8.29,8.29,0,0,1-.14,1.22,4.58,4.58,0,0,0-.71-.87.17.17,0,0,0-.11-.06c-.1,0-.11.15-.09.25a8.67,8.67,0,0,1,.12,1.25c-.46,0-.92,0-1.37,0-6.81-.56-8.57-1.15-13.23-1.19a28.29,28.29,0,0,0-9.7,1.36,32,32,0,0,0-7.7,4,56.28,56.28,0,0,0-8.26,6.49,8.48,8.48,0,0,0,6.22.89,6.1,6.1,0,0,0,1.82-.89c2.31-1.64,6.46-5.92,8.76-7.56-.74,1.52-3.87,5.3-4.55,6.74s-1.32,3.21.05,5v0a.93.93,0,0,0,.47.17,5.82,5.82,0,0,0,.93-.07.42.42,0,0,0,.19,0,.32.32,0,0,0,.17-.22.92.92,0,0,0-.07-.79,1,1,0,0,0-.68-.42,2,2,0,0,1-.35,0,.39.39,0,0,1-.17-.14,5.63,5.63,0,0,1,1.27-2.69c1-.93,2.86-1,4.47-1.52a3.92,3.92,0,0,0,1.69,5,1.36,1.36,0,0,0,.25.11s0,0,0,0c.05.23.38.37.69.39s.62,0,.92-.05a.65.65,0,0,0,.2,0,.29.29,0,0,0,.17-.17.58.58,0,0,0-.07-.62,1,1,0,0,0-.68-.32l-.4,0a.53.53,0,0,1-.28-.1l0,0h0a2.59,2.59,0,0,1-.84-1.68,13.56,13.56,0,0,0,1.68-2.1,4.63,4.63,0,0,1,1.52-1.73,1.06,1.06,0,0,1,.89-.36c1.84.27,3.67.61,5.43.91.47,4,.7,5.46,1.34,5.91a.8.8,0,0,0,.66.39,5.62,5.62,0,0,0,.92-.07.44.44,0,0,0,.2,0,.35.35,0,0,0,.17-.22.92.92,0,0,0-.07-.79,1,1,0,0,0-.68-.42h-.22a6.93,6.93,0,0,1-.08-1.06,6.38,6.38,0,0,1,.42-2.15l.58-.25q2.19,2.26,4.36,4.54a.2.2,0,0,0,0,.07c0,.23.38.37.69.39s.62,0,.92-.05a.65.65,0,0,0,.2,0,.31.31,0,0,0,.17-.17A.58.58,0,0,0,236,247a1,1,0,0,0-.68-.32l-.4,0a.53.53,0,0,1-.28-.1l0,0h0c-.66-1.31-1.29-2.64-2-3.89-.44-.75-.59-1.33-.38-1.73s.71-.51,1.41-.69c2.79-.73,3-1.55,3.95-1.25s1,1.17,2.18,1.43a2.41,2.41,0,0,0,1.53-.11A6.76,6.76,0,0,1,240.44,238.52Z"/></g></svg>